<!-- Generated by IcoMoon.io -->
<svg version="1.1" xmlns="http://www.w3.org/2000/svg" width="32" height="32" viewBox="0 0 32 32"><title>css-icon</title>
<path fill="#1572b6" d="M5.902 27.108l-2.246-24.991h24.688l-2.249 24.987-10.11 2.779-10.083-2.775z"></path>
<path fill="#33a9dc" d="M16 27.759l8.17-2.246 1.922-21.353h-10.092v23.599z"></path>
<path fill="#fff" d="M16 13.214h4.090l0.282-3.139h-4.372v-3.065h7.75l-0.074 0.822-0.759 8.447h-6.917v-3.065z"></path>
<path fill="#ebebeb" d="M16.019 21.174l-0.014 0.004-3.442-0.922-0.22-2.444h-3.103l0.433 4.813 6.331 1.743 0.015-0.004v-3.189z"></path>
<path fill="#fff" d="M19.827 16.15l-0.372 4.104-3.447 0.922v3.189l6.336-1.741 0.047-0.518 0.537-5.957h-3.101z"></path>
<path fill="#ebebeb" d="M16.011 7.011v3.065h-7.466l-0.062-0.689-0.141-1.554-0.074-0.822h7.743zM16 13.214v3.065h-3.399l-0.062-0.689-0.14-1.554-0.074-0.822h3.675z"></path>
</svg>
