<?xml version="1.0" standalone="no"?>
<!DOCTYPE svg PUBLIC "-//W3C//DTD SVG 20010904//EN"
 "http://www.w3.org/TR/2001/REC-SVG-20010904/DTD/svg10.dtd">
<svg version="1.0" xmlns="http://www.w3.org/2000/svg"
 width="540.000000pt" height="540.000000pt" viewBox="0 0 540.000000 540.000000"
 preserveAspectRatio="xMidYMid meet">

<g transform="translate(0.000000,540.000000) scale(0.100000,-0.100000)"
fill="#000000" stroke="none">
<path d="M0 2700 l0 -2700 2700 0 2700 0 0 2700 0 2700 -2700 0 -2700 0 0
-2700z m3265 1429 c53 -27 102 -75 128 -124 30 -55 31 -182 2 -240 -27 -55
-96 -120 -150 -140 -56 -22 -164 -17 -219 10 -50 24 -100 74 -128 128 -32 61
-32 175 0 237 41 79 104 129 187 151 45 12 135 1 180 -22z m-735 -1184 l0
-955 -191 2 -192 3 -14 50 c-8 28 -16 56 -18 63 -3 8 -22 -1 -57 -28 -134
-106 -274 -141 -427 -105 -195 46 -340 207 -403 446 -19 71 -22 110 -22 254 0
156 3 177 28 260 86 283 285 455 527 455 105 0 161 -17 242 -71 l57 -39 0 200
c0 159 3 208 16 238 46 111 186 176 392 181 l62 1 0 -955z m840 -248 c0 -397
-4 -696 -10 -745 -13 -97 -50 -207 -95 -277 -90 -141 -248 -204 -480 -192 -97
5 -195 23 -195 36 1 3 24 17 53 31 68 33 155 121 189 192 63 129 61 105 66
896 l3 722 235 0 234 0 0 -663z m679 -188 c66 -33 121 -93 142 -156 7 -21 9
-66 7 -109 -4 -60 -10 -81 -37 -123 -95 -148 -296 -173 -424 -53 -108 101
-108 296 0 393 67 60 111 78 194 79 43 0 70 -7 118 -31z"/>
<path d="M1801 2990 c-86 -54 -114 -129 -115 -305 -1 -235 57 -335 194 -337
68 0 114 17 150 58 l30 35 -2 256 -3 257 -47 24 c-68 35 -162 40 -207 12z"/>
</g>
</svg>
