<?xml version="1.0" encoding="iso-8859-1"?>
<!-- Uploaded to: SVG Repo, www.svgrepo.com, Generator: SVG Repo Mixer Tools -->
<!DOCTYPE svg PUBLIC "-//W3C//DTD SVG 1.1//EN" "http://www.w3.org/Graphics/SVG/1.1/DTD/svg11.dtd">
<svg fill="#000000" version="1.1" id="Capa_1" xmlns="http://www.w3.org/2000/svg" xmlns:xlink="http://www.w3.org/1999/xlink" 
	 width="800px" height="800px" viewBox="0 0 400.898 400.898"
	 xml:space="preserve">
<g>
	<path d="M290.573,191.222c17.106,0.501,34.92,0.59,57.472-14.803c23.827-16.263,34.455-49.417,34.404-61.635
		c-47.241,48.824-93.443-21.063-144.93,3.004c8.988-14.566,17.975-29.949,15.92-57.178C251.261,31.843,227.864,6.061,217.261,0
		c18.661,65.32-64.964,70.394-69.864,127.016c-8.121-15.066-16.953-30.541-41.561-42.375c-25.998-12.502-60.022-5.128-70.575,1.025
		c65.901,16.497,28.478,91.456,75.063,124.012c-17.105-0.502-34.919-0.59-57.471,14.803c-23.826,16.265-34.454,49.418-34.403,61.636
		c47.24-48.821,93.441,21.062,144.928-3.001c-8.988,14.564-17.973,29.947-15.918,57.174c2.171,28.768,25.576,54.549,36.178,60.609
		c-18.66-65.32,64.968-70.393,69.865-127.014c8.121,15.065,16.951,30.541,41.555,42.373c26.004,12.504,60.028,5.129,70.58-1.024
		C299.736,298.735,337.16,223.777,290.573,191.222z"/>
</g>
</svg>