<!-- Generated by IcoMoon.io -->
<svg version="1.1" xmlns="http://www.w3.org/2000/svg" width="32" height="32" viewBox="0 0 32 32"><title>html-icon</title>
<path fill="#e44f26" d="M5.902 27.201l-2.247-25.201h24.69l-2.25 25.197-10.11 2.803-10.083-2.799z"></path>
<path fill="#f1662a" d="M16 27.858l8.17-2.265 1.922-21.532h-10.092v23.797z"></path>
<path fill="#ebebeb" d="M16 13.407h-4.090l-0.282-3.165h4.372v-3.091h-7.75l0.074 0.83 0.759 8.517h6.917v-3.091zM16 21.434l-0.014 0.004-3.442-0.929-0.22-2.465h-3.103l0.433 4.852 6.332 1.758 0.014-0.004v-3.216z"></path>
<path fill="#fff" d="M15.989 13.407v3.091h3.806l-0.358 4.009-3.448 0.93v3.216l6.337-1.757 0.046-0.522 0.726-8.137 0.076-0.83h-7.185zM15.989 7.151v3.091h7.466l0.062-0.694 0.141-1.567 0.074-0.83h-7.743z"></path>
</svg>
