<!-- Generated by IcoMoon.io -->
<svg version="1.1" xmlns="http://www.w3.org/2000/svg" width="32" height="32" viewBox="0 0 32 32"><title>logo</title>
<path fill="#ffc5d8" d="M18.224 15.312c0.224 1.232-0.24 2.544-1.424 3.088-3.264 1.52-5.024-4.208-1.536-4.848 1.12 0.016 2.288 0.208 2.768 1.184 0.016 0.032 0.032 0.080 0.048 0.112 0.080 0.144 0.128 0.304 0.144 0.464zM26.72 5.6c0.208 0.688 0.288 1.776-0.048 2.432-0.272 0.544-0.784 1.008-1.216 1.424-2 1.952-4.544 3.184-6.896 4.624-0.432-0.624-1.12-0.992-1.904-1.168 0.080-1.296 0.16-2.608 0.24-3.904 0.096-1.312 0.064-2.72 0.4-4 0.288-1.088 1.008-2.176 2.016-2.736 1.248-0.704 2.768-0.064 2.976 1.408-0.032 0.016-0.048 0.032-0.064 0.064-0.72 0.848-1.28 1.776-1.792 2.768-0.48 0.928-0.992 1.84-0.96 2.912 0.016 0.512 0.8 0.512 0.784 0-0.016-1.008 0.528-1.888 0.976-2.752 0.416-0.8 0.88-1.568 1.456-2.272 0.032 0 0.064-0.016 0.096-0.032 1.424-0.528 3.424-0.528 3.936 1.232z"></path>
<path fill="#ffc5d8" d="M16.272 6.848c-0.016 0.096-0.016 0.192-0.016 0.288-0.144 1.888-0.272 3.776-0.384 5.664-0.192-0.016-0.384-0.032-0.592-0.032-0.048 0-0.096 0.016-0.128 0.016h-0.096c-0.88 0.16-1.568 0.688-2.016 1.376-0.976-0.352-1.904-0.8-2.768-1.36-0.784-0.496-1.504-1.136-2.336-1.536-0.56-0.272-1.232-0.48-1.936-0.608-0.464-0.96-0.752-2-0.768-3.072-0.016-0.496-0.048-1.168 0.16-1.632 0.272-0.608 0.944-0.592 1.504-0.576 2.448 0.032 3.408 2.88 4.128 4.8 0.176 0.464 0.944 0.272 0.768-0.208-0.496-1.328-0.992-2.864-1.968-3.904-0.208-0.224-0.416-0.432-0.64-0.608 0.016-0.048 0.032-0.112 0.032-0.16-0.080-1.088 0.256-1.792 1.040-2.528 0.752-0.704 2.064-0.688 3.008-0.384 1.84 0.592 2.4 2.784 2.976 4.384 0.016 0.032 0.016 0.064 0.032 0.080zM12.688 16.976c0.064 0.176 0.128 0.352 0.208 0.528-1.632 0.816-3.104 1.888-4.528 3.008-0.704 0.544-1.408 1.088-2.016 1.712-0.048-0.016-0.096-0.032-0.16-0.032-1.024 0-2.192 0.080-3.072-0.512-0.88-0.576-1.392-1.76-1.232-2.8 0.208-1.28 1.616-1.296 2.64-1.28 1.056 0.016 2.112 0.048 3.152 0.064 0.512 0.016 0.512-0.784 0-0.784-1.472-0.032-3.072-0.24-4.528 0-0.064 0.016-0.144 0.032-0.208 0.048-0.048-0.064-0.128-0.128-0.24-0.144-1.616-0.272-1.92-2.72-1.328-3.936 0.72-1.472 2.4-1.504 3.84-1.392 1.6 0.112 2.688 0.72 3.952 1.616 1.088 0.768 2.288 1.376 3.52 1.84-0.192 0.624-0.224 1.36 0 2.064zM15.536 19.44c-0.048 2.016-0.080 4.048-0.128 6.064-0.016 0.576-0.016 1.184 0.032 1.776-0.032 0.016-0.064 0.048-0.096 0.080-0.768 0.928-3.536 3.216-4.016 0.96-0.336-1.552 0.528-2.976 1.568-4.032 0.352-0.368-0.192-0.912-0.56-0.56-0.832 0.832-1.568 1.968-1.808 3.152-0.032 0.016-0.048 0.032-0.080 0.048-0.96 0.72-2.608 0.736-3.712 0.32-1.824-0.688-1.088-3.008-0.176-4.144 0.88-1.104 2.176-1.952 3.296-2.784 1.088-0.816 2.224-1.568 3.44-2.176 0.544 0.752 1.328 1.232 2.24 1.296z"></path>
<path fill="#e53861" d="M31.776 13.328c0.144 1.152-0.832 2.016-1.84 2.48 0.512 0.272 1.008 0.624 1.264 1.104 0.32 0.64 0.288 1.664 0.224 2.368-0.16 1.52-1.52 2.352-2.96 2.576-0.944 0.144-1.968 0.080-2.96-0.128 1.584 1.648 2.784 3.936 0.544 5.632-0.672 0.512-1.648 0.448-2.448 0.080-0.112 1.28-1.136 2.816-2.24 3.36-0.704 0.352-1.712 0.288-2.48 0.224-0.736-0.064-1.488-0.272-2.080-0.736-0.672-0.528-1.024-1.248-1.2-2.032-1.168 1.184-3.728 2.944-4.736 1.072-0.256-0.48-0.384-0.976-0.4-1.472-1.168 0.608-2.848 0.56-4.032 0.096-1.408-0.56-1.84-2.096-1.456-3.472 0.16-0.576 0.416-1.088 0.752-1.536-1.152-0.016-2.336-0.064-3.264-0.816-0.944-0.768-1.456-2-1.36-3.2 0.048-0.704 0.384-1.232 0.88-1.6-1.184-0.528-1.712-2.080-1.68-3.296 0.032-1.456 0.912-2.816 2.336-3.248 0.736-0.224 1.6-0.288 2.464-0.224-0.784-1.952-1.504-5.648 1.12-5.936 0.848-0.096 1.552 0.032 2.192 0.336 0-1.104 0.368-1.84 1.2-2.656 0.896-0.912 2-0.96 3.216-0.8 2.048 0.272 2.976 1.952 3.664 3.696 0.176-0.848 0.464-1.648 1.056-2.368 0.8-1.008 1.984-1.824 3.328-1.6 1.168 0.208 1.952 1.12 2.176 2.24 1.376-0.4 2.944-0.304 3.92 0.896 0.8 0.976 1.008 2.96 0.4 4.080-0.448 0.816-1.168 1.536-1.936 2.176 2.448-0.128 5.952-0.32 6.336 2.704zM28.112 15.408c1.088-0.064 3.184-0.736 2.848-2.192-0.32-1.328-1.584-1.776-2.816-1.824-1.216-0.048-2.432 0.032-3.648 0.048-0.048 0-0.096-0.016-0.144-0.016l-0.624 0.432c-1.552 1.072-3.232 1.968-4.832 2.96 0.064 0.192 0.096 0.384 0.128 0.608 0.064 0.544 0.016 1.088-0.128 1.584 1.088 0.688 2.176 1.36 3.184 2.16 1.2 0.928 2.336 1.584 3.856 1.84 0.72 0.128 1.488 0.192 2.208 0.112 0.784-0.080 2-0.528 2.352-1.296 0.256-0.544 0.144-1.392 0.096-1.968-0.096-0.896-0.944-1.296-1.68-1.648-0.032-0.016-0.064-0.032-0.080-0.048-0.64 0.096-1.296 0.080-1.92 0.096-0.896 0.032-1.808 0.048-2.704 0.080-0.512 0.016-0.512-0.768 0-0.784 1.296-0.064 2.608-0.064 3.904-0.144zM26.672 8.032c0.32-0.656 0.256-1.744 0.048-2.432-0.512-1.76-2.512-1.76-3.92-1.216-0.032 0.016-0.064 0.016-0.096 0.032-0.576 0.688-1.040 1.472-1.456 2.272-0.448 0.864-1.008 1.744-0.976 2.752 0.016 0.512-0.784 0.512-0.784 0-0.016-1.072 0.48-1.984 0.96-2.912 0.512-0.976 1.072-1.92 1.792-2.768 0.016-0.032 0.048-0.048 0.064-0.064-0.192-1.456-1.712-2.112-2.976-1.408-0.992 0.56-1.712 1.648-2.016 2.736-0.336 1.264-0.304 2.688-0.4 4-0.096 1.296-0.176 2.608-0.24 3.904 0.784 0.176 1.472 0.544 1.904 1.168 2.352-1.44 4.896-2.688 6.896-4.624 0.416-0.416 0.928-0.896 1.2-1.44zM25.744 26.576c1.952-1.776-0.4-4.048-1.84-5.232-0.048-0.048-0.096-0.096-0.112-0.144-0.208-0.096-0.416-0.192-0.608-0.288-0.816-0.448-1.52-1.12-2.272-1.664-0.752-0.528-1.52-1.024-2.304-1.504-0.384 0.704-1.008 1.248-1.84 1.536-0.144 0.048-0.304 0.096-0.448 0.128l-0.096 4.432c-0.032 1.44-0.272 3.088 0.176 4.496 0.528 1.712 2.112 2.048 3.728 1.952 0.816-0.048 1.248-0.384 1.744-0.976 0.512-0.624 0.976-1.344 0.928-2.192 0-0.048 0-0.080 0.016-0.128-0.032-0.032-0.064-0.048-0.080-0.080-0.944-0.896-1.808-2.016-2.080-3.312-0.112-0.496 0.656-0.704 0.768-0.208 0.208 1.008 0.784 1.808 1.472 2.544 0.672 0.752 1.92 1.472 2.848 0.64zM16.816 18.416c1.184-0.544 1.648-1.856 1.424-3.088-0.032-0.16-0.080-0.32-0.128-0.448-0.016-0.032-0.032-0.080-0.048-0.112-0.48-0.976-1.648-1.168-2.768-1.184-3.504 0.624-1.76 6.352 1.52 4.832zM16.256 7.136c0.016-0.096 0.016-0.192 0.016-0.288-0.016-0.016-0.032-0.048-0.032-0.080-0.592-1.6-1.136-3.808-2.976-4.384-0.944-0.304-2.256-0.32-3.008 0.384-0.784 0.736-1.12 1.44-1.040 2.528 0 0.064 0 0.128-0.032 0.16 0.224 0.176 0.432 0.384 0.64 0.608 0.976 1.056 1.472 2.592 1.968 3.904 0.176 0.48-0.576 0.688-0.768 0.208-0.72-1.92-1.68-4.752-4.128-4.8-0.56 0-1.232-0.016-1.504 0.576-0.208 0.464-0.176 1.136-0.16 1.632 0.032 1.072 0.304 2.112 0.768 3.072 0.704 0.128 1.36 0.32 1.936 0.608 0.848 0.4 1.552 1.040 2.336 1.536 0.88 0.544 1.808 0.992 2.768 1.36 0.432-0.688 1.136-1.216 2.016-1.376h0.096c0.048-0.016 0.080-0.016 0.128-0.016 0.192 0 0.4 0.016 0.592 0.032 0.112-1.888 0.24-3.776 0.384-5.664zM15.408 25.504c0.048-2.016 0.080-4.048 0.128-6.064-0.896-0.064-1.696-0.544-2.24-1.28-1.216 0.608-2.352 1.36-3.44 2.176-1.12 0.832-2.416 1.68-3.296 2.784-0.912 1.136-1.648 3.44 0.176 4.144 1.104 0.416 2.752 0.4 3.712-0.32 0.032-0.016 0.048-0.032 0.080-0.048 0.24-1.184 0.992-2.32 1.808-3.152 0.368-0.368 0.912 0.192 0.56 0.56-1.056 1.056-1.904 2.48-1.568 4.032 0.48 2.256 3.248-0.048 4.016-0.96 0.032-0.032 0.064-0.064 0.096-0.080-0.064-0.608-0.048-1.216-0.032-1.792zM12.88 17.488c-0.080-0.16-0.144-0.336-0.208-0.528-0.224-0.704-0.192-1.424 0.032-2.096-1.248-0.48-2.432-1.088-3.52-1.84-1.264-0.896-2.368-1.504-3.952-1.616-1.44-0.096-3.12-0.080-3.84 1.392-0.608 1.216-0.288 3.664 1.328 3.936 0.112 0.016 0.192 0.080 0.24 0.144 0.064-0.016 0.144-0.032 0.208-0.048 1.456-0.24 3.056-0.032 4.528 0 0.512 0.016 0.512 0.8 0 0.784-1.056-0.016-2.112-0.048-3.152-0.064-1.024-0.016-2.448 0-2.64 1.28-0.16 1.040 0.352 2.208 1.232 2.8s2.048 0.496 3.072 0.512c0.064 0 0.112 0.016 0.16 0.032 0.608-0.624 1.328-1.168 2.016-1.712 1.392-1.088 2.864-2.16 4.496-2.976z"></path>
<path fill="#ffc5d8" d="M30.96 13.216c0.336 1.456-1.76 2.128-2.848 2.192-1.296 0.080-2.592 0.064-3.904 0.112-0.512 0.016-0.512 0.8 0 0.784 0.896-0.032 1.808-0.048 2.704-0.080 0.64-0.016 1.296 0.016 1.92-0.096 0.032 0.016 0.048 0.032 0.080 0.048 0.736 0.352 1.584 0.752 1.68 1.648 0.064 0.576 0.16 1.424-0.096 1.968-0.352 0.768-1.584 1.216-2.352 1.296-0.72 0.080-1.488 0.016-2.208-0.112-1.52-0.272-2.656-0.912-3.856-1.84-1.008-0.784-2.096-1.472-3.184-2.16 0.144-0.496 0.192-1.040 0.128-1.584-0.032-0.224-0.080-0.416-0.128-0.608 1.616-0.992 3.28-1.888 4.832-2.96 0.208-0.144 0.4-0.288 0.624-0.432 0.048 0.016 0.096 0.016 0.144 0.016 1.216-0.016 2.432-0.096 3.648-0.048 1.232 0.080 2.496 0.528 2.816 1.856zM23.904 21.344c1.44 1.168 3.808 3.456 1.84 5.232-0.928 0.832-2.176 0.112-2.864-0.64-0.688-0.736-1.248-1.536-1.472-2.544-0.112-0.496-0.864-0.288-0.768 0.208 0.288 1.296 1.136 2.416 2.080 3.312 0.032 0.032 0.064 0.048 0.080 0.080-0.016 0.032-0.016 0.080-0.016 0.128 0.048 0.848-0.416 1.568-0.928 2.192-0.496 0.608-0.928 0.928-1.744 0.976-1.6 0.096-3.184-0.24-3.728-1.952-0.432-1.408-0.192-3.056-0.176-4.496 0.032-1.488 0.064-2.96 0.096-4.432 0.144-0.032 0.304-0.064 0.448-0.128 0.832-0.288 1.456-0.848 1.84-1.536 0.768 0.48 1.552 0.976 2.304 1.504 0.768 0.544 1.456 1.216 2.272 1.664 0.192 0.112 0.4 0.208 0.608 0.288 0.032 0.048 0.064 0.096 0.128 0.144z"></path>
</svg>
