<!-- Generated by IcoMoon.io -->
<svg version="1.1" xmlns="http://www.w3.org/2000/svg" width="32" height="32" viewBox="0 0 32 32"><title>react-icon</title>
<path fill="#00d8ff" d="M26.31 10.96c-0.341-0.117-0.684-0.226-1.030-0.326 0.058-0.238 0.112-0.474 0.159-0.705 0.78-3.799 0.27-6.859-1.471-7.867-1.669-0.966-4.399 0.041-7.156 2.449-0.272 0.238-0.537 0.482-0.797 0.734-0.174-0.167-0.35-0.331-0.53-0.491-2.889-2.575-5.786-3.66-7.525-2.65-1.668 0.969-2.162 3.846-1.46 7.446 0.070 0.357 0.149 0.711 0.236 1.064-0.41 0.117-0.806 0.241-1.184 0.374-3.388 1.185-5.551 3.043-5.551 4.97 0 1.99 2.323 3.986 5.851 5.197 0.286 0.098 0.574 0.188 0.865 0.272-0.094 0.38-0.178 0.762-0.251 1.146-0.669 3.538-0.147 6.346 1.517 7.309 1.718 0.994 4.601-0.028 7.409-2.491 0.228-0.2 0.45-0.406 0.668-0.618 0.281 0.272 0.569 0.536 0.865 0.792 2.72 2.349 5.405 3.297 7.067 2.332 1.716-0.997 2.274-4.015 1.55-7.686-0.057-0.288-0.121-0.574-0.192-0.858 0.202-0.060 0.401-0.122 0.595-0.187 3.668-1.22 6.055-3.192 6.055-5.209 0-1.934-2.233-3.804-5.689-4.998zM25.514 19.865c-0.175 0.058-0.354 0.114-0.537 0.169-0.405-1.287-0.951-2.655-1.62-4.068 0.638-1.38 1.164-2.731 1.557-4.009 0.327 0.095 0.645 0.195 0.951 0.301 2.961 1.023 4.767 2.536 4.767 3.701 0 1.241-1.951 2.853-5.118 3.906zM24.2 22.478c0.32 1.623 0.366 3.091 0.154 4.238-0.191 1.031-0.574 1.718-1.048 1.994-1.008 0.586-3.165-0.176-5.49-2.184-0.275-0.238-0.543-0.483-0.805-0.736 0.902-0.99 1.803-2.14 2.682-3.418 1.547-0.138 3.008-0.363 4.334-0.671 0.064 0.258 0.122 0.517 0.173 0.777zM10.91 28.609c-0.985 0.349-1.77 0.359-2.244 0.085-1.009-0.584-1.429-2.84-0.857-5.865 0.068-0.358 0.146-0.713 0.234-1.066 1.311 0.291 2.761 0.5 4.312 0.626 0.885 1.25 1.812 2.4 2.747 3.406-0.199 0.193-0.402 0.381-0.61 0.564-1.242 1.089-2.486 1.862-3.582 2.25zM6.295 19.857c-1.56-0.535-2.849-1.231-3.732-1.99-0.794-0.682-1.194-1.359-1.194-1.909 0-1.169 1.737-2.661 4.634-3.675 0.352-0.123 0.72-0.239 1.101-0.348 0.4 1.307 0.926 2.674 1.559 4.056-0.642 1.402-1.175 2.791-1.579 4.114-0.265-0.076-0.529-0.159-0.79-0.248zM7.842 9.287c-0.601-3.084-0.202-5.411 0.803-5.995 1.070-0.622 3.437 0.265 5.932 2.488 0.163 0.145 0.323 0.294 0.48 0.445-0.93 1.002-1.848 2.143-2.726 3.386-1.505 0.14-2.945 0.365-4.27 0.666-0.082-0.328-0.155-0.658-0.22-0.989v-0zM21.644 12.708c-0.313-0.542-0.637-1.078-0.973-1.606 1.021 0.13 1.999 0.302 2.918 0.512-0.276 0.887-0.619 1.815-1.024 2.765-0.296-0.563-0.603-1.12-0.921-1.671zM16.015 7.205c0.63 0.686 1.262 1.451 1.883 2.281-1.26-0.060-2.522-0.060-3.782-0.001 0.622-0.823 1.258-1.587 1.899-2.281zM10.351 12.717c-0.314 0.546-0.615 1.1-0.903 1.661-0.398-0.947-0.739-1.879-1.017-2.779 0.913-0.205 1.886-0.373 2.901-0.5-0.34 0.531-0.667 1.071-0.981 1.618v0zM11.361 20.915c-1.048-0.117-2.036-0.276-2.949-0.476 0.282-0.916 0.631-1.867 1.037-2.835 0.289 0.561 0.592 1.115 0.907 1.662 0.324 0.562 0.66 1.112 1.005 1.649zM16.053 24.808c-0.648-0.701-1.294-1.478-1.925-2.312 0.613 0.024 1.237 0.036 1.872 0.036 0.652 0 1.297-0.015 1.931-0.043-0.623 0.85-1.252 1.627-1.878 2.319zM22.577 17.555c0.428 0.978 0.788 1.925 1.074 2.825-0.928 0.212-1.929 0.384-2.985 0.511 0.338-0.538 0.666-1.083 0.982-1.634 0.322-0.56 0.631-1.128 0.928-1.702zM20.465 18.571c-0.485 0.845-0.997 1.674-1.535 2.486-0.975 0.069-1.953 0.104-2.93 0.103-0.996 0-1.964-0.031-2.897-0.092-0.552-0.81-1.074-1.64-1.564-2.49h0c-0.488-0.845-0.943-1.708-1.365-2.588 0.421-0.88 0.875-1.743 1.361-2.589l-0 0c0.486-0.846 1.003-1.673 1.552-2.479 0.952-0.072 1.927-0.11 2.914-0.11h0c0.991 0 1.968 0.038 2.919 0.111 0.543 0.805 1.057 1.629 1.542 2.471 0.488 0.844 0.948 1.703 1.379 2.577-0.427 0.883-0.886 1.75-1.375 2.6zM23.285 3.251c1.071 0.62 1.488 3.121 0.815 6.401-0.043 0.209-0.091 0.422-0.144 0.639-1.328-0.308-2.769-0.536-4.278-0.678-0.879-1.257-1.79-2.399-2.705-3.388 0.24-0.232 0.485-0.458 0.736-0.677 2.362-2.063 4.57-2.878 5.576-2.296zM16 13.091c1.578 0 2.857 1.284 2.857 2.868s-1.279 2.868-2.857 2.868c-1.578 0-2.857-1.284-2.857-2.868s1.279-2.868 2.857-2.868z"></path>
</svg>
