<?xml version="1.0" encoding="utf-8"?>
<svg xmlns="http://www.w3.org/2000/svg">
<symbol id="chain-icon-dark" viewBox="0 0 21 21">
<g fill="none" fill-rule="evenodd" stroke="#000000" stroke-linecap="round" stroke-linejoin="round" transform="translate(4 4)">
<path d="m5.5 7.5c.96940983 1.36718798 3.01111566 1.12727011 4.01111565 0l1.98888435-2c1.1243486-1.22807966 1.1641276-2.81388365 0-4-1.135619-1.15706921-2.86438099-1.15706947-4 0l-2 2"/>
<path d="m7.5 6.56977319c-.96940983-1.36718798-3-1.1970433-4-.06977319l-2 1.97487373c-1.12434863 1.22807966-1.16412758 2.83900987 0 4.02512627 1.13561901 1.1570692 2.86438099 1.1570695 4 0l2-2"/>
</g>

</symbol>
<symbol id="chain-icon-light" viewBox="0 0 18 18">
<path d="M10.2867 7.7133C9.60408 7.031 8.67846 6.64771 7.71334 6.64771C6.74821 6.64771 5.82259 7.031 5.14 7.7133L2.56584 10.2866C1.88324 10.9692 1.49976 11.895 1.49976 12.8604C1.49976 13.8257 1.88324 14.7515 2.56584 15.4341C3.24844 16.1167 4.17424 16.5002 5.13959 16.5002C6.10493 16.5002 7.03074 16.1167 7.71334 15.4341L9 14.1475" stroke="#FCFCFC" stroke-width="1.66667" stroke-linecap="round" stroke-linejoin="round"/>
<path d="M7.71338 10.2867C8.39597 10.969 9.32159 11.3523 10.2867 11.3523C11.2518 11.3523 12.1775 10.969 12.86 10.2867L15.4342 7.71334C16.1168 7.03074 16.5003 6.10493 16.5003 5.13959C16.5003 4.17424 16.1168 3.24844 15.4342 2.56584C14.7516 1.88324 13.8258 1.49976 12.8605 1.49976C11.8951 1.49976 10.9693 1.88324 10.2867 2.56584L9.00005 3.8525" stroke="#FCFCFC" stroke-width="1.66667" stroke-linecap="round" stroke-linejoin="round"/>

</symbol>
<symbol id="chain-icon" viewBox="0 0 31.891 31.891">
<g id="SVGRepo_bgCarrier" stroke-width="0"/>
<g id="SVGRepo_tracerCarrier" stroke-linecap="round" stroke-linejoin="round"/>
<g id="SVGRepo_iconCarrier"> <g> <path d="M30.543,5.74l-4.078-4.035c-1.805-1.777-4.736-1.789-6.545-0.02l-4.525,4.414c-1.812,1.768-1.82,4.648-0.02,6.424 l2.586-2.484c-0.262-0.791,0.061-1.697,0.701-2.324l2.879-2.807c0.912-0.885,2.375-0.881,3.275,0.01l2.449,2.42 c0.9,0.891,0.896,2.326-0.01,3.213l-2.879,2.809c-0.609,0.594-1.609,0.92-2.385,0.711l-2.533,2.486 c1.803,1.781,4.732,1.789,6.545,0.02l4.52-4.41C32.34,10.396,32.346,7.519,30.543,5.74z"/> <path d="M13.975,21.894c0.215,0.773-0.129,1.773-0.752,2.381l-2.689,2.627c-0.922,0.9-2.414,0.895-3.332-0.012l-2.498-2.461 c-0.916-0.906-0.91-2.379,0.012-3.275l2.691-2.627c0.656-0.637,1.598-0.961,2.42-0.689l2.594-2.57 c-1.836-1.811-4.824-1.82-6.668-0.02l-4.363,4.26c-1.846,1.803-1.855,4.734-0.02,6.549l4.154,4.107 c1.834,1.809,4.82,1.818,6.668,0.018l4.363-4.26c1.844-1.805,1.852-4.734,0.02-6.547L13.975,21.894z"/> <path d="M11.139,20.722c0.611,0.617,1.611,0.623,2.234,0.008l7.455-7.416c0.621-0.617,0.625-1.615,0.008-2.234 c-0.613-0.615-1.611-0.619-2.23-0.006l-7.457,7.414C10.529,19.103,10.525,20.101,11.139,20.722z"/> <g> </g> <g> </g> <g> </g> <g> </g> <g> </g> <g> </g> <g> </g> <g> </g> <g> </g> <g> </g> <g> </g> <g> </g> <g> </g> <g> </g> <g> </g> </g> </g>

</symbol>
<symbol id="contact" viewBox="0 -960 960 960"><path d="M560-520h280v-200H560v200Zm140-50-100-70v-40l100 70 100-70v40l-100 70ZM80-120q-33 0-56.5-23.5T0-200v-560q0-33 23.5-56.5T80-840h800q33 0 56.5 23.5T960-760v560q0 33-23.5 56.5T880-120H80Zm556-80h244v-560H80v560h4q42-75 116-117.5T360-360q86 0 160 42.5T636-200ZM360-400q50 0 85-35t35-85q0-50-35-85t-85-35q-50 0-85 35t-35 85q0 50 35 85t85 35ZM182-200h356q-34-38-80.5-59T360-280q-51 0-97 21t-81 59Zm178-280q-17 0-28.5-11.5T320-520q0-17 11.5-28.5T360-560q17 0 28.5 11.5T400-520q0 17-11.5 28.5T360-480Zm120 0Z"/>
</symbol>
<symbol id="css-icon" viewBox="0 0 32 32"><title>css-icon</title>
<path fill="#1572b6" d="M5.902 27.108l-2.246-24.991h24.688l-2.249 24.987-10.11 2.779-10.083-2.775z"/>
<path fill="#33a9dc" d="M16 27.759l8.17-2.246 1.922-21.353h-10.092v23.599z"/>
<path fill="#fff" d="M16 13.214h4.090l0.282-3.139h-4.372v-3.065h7.75l-0.074 0.822-0.759 8.447h-6.917v-3.065z"/>
<path fill="#ebebeb" d="M16.019 21.174l-0.014 0.004-3.442-0.922-0.22-2.444h-3.103l0.433 4.813 6.331 1.743 0.015-0.004v-3.189z"/>
<path fill="#fff" d="M19.827 16.15l-0.372 4.104-3.447 0.922v3.189l6.336-1.741 0.047-0.518 0.537-5.957h-3.101z"/>
<path fill="#ebebeb" d="M16.011 7.011v3.065h-7.466l-0.062-0.689-0.141-1.554-0.074-0.822h7.743zM16 13.214v3.065h-3.399l-0.062-0.689-0.14-1.554-0.074-0.822h3.675z"/>

</symbol>
<symbol id="double-arrow" viewBox="0 -960 960 960"><path d="M383-480 200-664l56-56 240 240-240 240-56-56 183-184Zm264 0L464-664l56-56 240 240-240 240-56-56 183-184Z"/>
</symbol>
<symbol id="flover" viewBox="0 0 400.898 400.898">
<g>
	<path d="M290.573,191.222c17.106,0.501,34.92,0.59,57.472-14.803c23.827-16.263,34.455-49.417,34.404-61.635
		c-47.241,48.824-93.443-21.063-144.93,3.004c8.988-14.566,17.975-29.949,15.92-57.178C251.261,31.843,227.864,6.061,217.261,0
		c18.661,65.32-64.964,70.394-69.864,127.016c-8.121-15.066-16.953-30.541-41.561-42.375c-25.998-12.502-60.022-5.128-70.575,1.025
		c65.901,16.497,28.478,91.456,75.063,124.012c-17.105-0.502-34.919-0.59-57.471,14.803c-23.826,16.265-34.454,49.418-34.403,61.636
		c47.24-48.821,93.441,21.062,144.928-3.001c-8.988,14.564-17.973,29.947-15.918,57.174c2.171,28.768,25.576,54.549,36.178,60.609
		c-18.66-65.32,64.968-70.393,69.865-127.014c8.121,15.065,16.951,30.541,41.555,42.373c26.004,12.504,60.028,5.129,70.58-1.024
		C299.736,298.735,337.16,223.777,290.573,191.222z"/>
</g>

</symbol>
<symbol id="github-icon-dark" viewBox="0 0 32 32"><title>github-icon-dark</title>
<path fill="#a7a7a7" d="M16 0c-8.84 0-16 7.16-16 16 0 7.080 4.58 13.060 10.94 15.18 0.8 0.14 1.1-0.34 1.1-0.76 0-0.38-0.020-1.64-0.020-2.98-4.020 0.74-5.060-0.98-5.38-1.88-0.18-0.46-0.96-1.88-1.64-2.26-0.56-0.3-1.36-1.040-0.020-1.060 1.26-0.020 2.16 1.16 2.46 1.64 1.44 2.42 3.74 1.74 4.66 1.32 0.14-1.040 0.56-1.74 1.020-2.14-3.56-0.4-7.28-1.78-7.28-7.9 0-1.74 0.62-3.18 1.64-4.3-0.16-0.4-0.72-2.040 0.16-4.24 0 0 1.34-0.42 4.4 1.64 1.28-0.36 2.64-0.54 4-0.54s2.72 0.18 4 0.54c3.060-2.080 4.4-1.64 4.4-1.64 0.88 2.2 0.32 3.84 0.16 4.24 1.020 1.12 1.64 2.54 1.64 4.3 0 6.14-3.74 7.5-7.3 7.9 0.58 0.5 1.080 1.46 1.080 2.96 0 2.14-0.020 3.86-0.020 4.4 0 0.42 0.3 0.92 1.1 0.76 3.176-1.072 5.936-3.114 7.892-5.837s3.007-5.991 3.008-9.343c0-8.84-7.16-16-16-16z"/>

</symbol>
<symbol id="github-icon-light" viewBox="0 0 32 32"><title>github-icon-light</title>
<path fill="#fffefe" d="M16 0c-8.84 0-16 7.16-16 16 0 7.080 4.58 13.060 10.94 15.18 0.8 0.14 1.1-0.34 1.1-0.76 0-0.38-0.020-1.64-0.020-2.98-4.020 0.74-5.060-0.98-5.38-1.88-0.18-0.46-0.96-1.88-1.64-2.26-0.56-0.3-1.36-1.040-0.020-1.060 1.26-0.020 2.16 1.16 2.46 1.64 1.44 2.42 3.74 1.74 4.66 1.32 0.14-1.040 0.56-1.74 1.020-2.14-3.56-0.4-7.28-1.78-7.28-7.9 0-1.74 0.62-3.18 1.64-4.3-0.16-0.4-0.72-2.040 0.16-4.24 0 0 1.34-0.42 4.4 1.64 1.28-0.36 2.64-0.54 4-0.54s2.72 0.18 4 0.54c3.060-2.080 4.4-1.64 4.4-1.64 0.88 2.2 0.32 3.84 0.16 4.24 1.020 1.12 1.64 2.54 1.64 4.3 0 6.14-3.74 7.5-7.3 7.9 0.58 0.5 1.080 1.46 1.080 2.96 0 2.14-0.020 3.86-0.020 4.4 0 0.42 0.3 0.92 1.1 0.76 3.176-1.072 5.936-3.114 7.892-5.837s3.008-5.991 3.008-9.343c0-8.84-7.16-16-16-16z"/>

</symbol>
<symbol id="home" viewBox="0 -960 960 960"><path d="M240-200h120v-240h240v240h120v-360L480-740 240-560v360Zm-80 80v-480l320-240 320 240v480H520v-240h-80v240H160Zm320-350Z"/>
</symbol>
<symbol id="html-icon" viewBox="0 0 32 32"><title>html-icon</title>
<path fill="#e44f26" d="M5.902 27.201l-2.247-25.201h24.69l-2.25 25.197-10.11 2.803-10.083-2.799z"/>
<path fill="#f1662a" d="M16 27.858l8.17-2.265 1.922-21.532h-10.092v23.797z"/>
<path fill="#ebebeb" d="M16 13.407h-4.090l-0.282-3.165h4.372v-3.091h-7.75l0.074 0.83 0.759 8.517h6.917v-3.091zM16 21.434l-0.014 0.004-3.442-0.929-0.22-2.465h-3.103l0.433 4.852 6.332 1.758 0.014-0.004v-3.216z"/>
<path fill="#fff" d="M15.989 13.407v3.091h3.806l-0.358 4.009-3.448 0.93v3.216l6.337-1.757 0.046-0.522 0.726-8.137 0.076-0.83h-7.185zM15.989 7.151v3.091h7.466l0.062-0.694 0.141-1.567 0.074-0.83h-7.743z"/>

</symbol>
<symbol id="js-icon" viewBox="0 0 32 32"><title>js-icon</title>
<path fill="#f5de19" d="M2 2h28v28h-28v-28z"/>
<path fill="#000" d="M20.809 23.875c0.239 0.485 0.609 0.892 1.069 1.175s0.991 0.43 1.531 0.425c1.090 0 1.787-0.545 1.787-1.3 0-0.9-0.716-1.222-1.916-1.747l-0.658-0.282c-1.9-0.809-3.16-1.822-3.16-3.964 0-1.973 1.5-3.476 3.853-3.476 0.762-0.055 1.523 0.115 2.188 0.49s1.206 0.937 1.554 1.617l-2.057 1.315c-0.134-0.337-0.367-0.625-0.669-0.827s-0.657-0.306-1.020-0.301c-0.158-0.016-0.318 0.001-0.469 0.051s-0.29 0.13-0.409 0.236c-0.118 0.106-0.213 0.236-0.279 0.381s-0.1 0.302-0.102 0.461c0 0.789 0.489 1.109 1.618 1.6l0.658 0.282c2.236 0.959 3.5 1.936 3.5 4.133 0 2.369-1.861 3.667-4.36 3.667-0.974 0.062-1.945-0.159-2.795-0.636s-1.545-1.191-2-2.055l2.136-1.244zM11.514 24.103c0.413 0.733 0.789 1.353 1.693 1.353 0.864 0 1.41-0.338 1.41-1.653v-8.947h2.631v8.982c0 2.724-1.6 3.964-3.929 3.964-0.823 0.045-1.641-0.16-2.345-0.588s-1.263-1.060-1.602-1.812l2.142-1.299z"/>

</symbol>
<symbol id="linkedin-logo" viewBox="0 0 30 30">
<path d="M15.0001 0.599976C7.0471 0.599976 0.600098 7.04698 0.600098 15C0.600098 22.953 7.0471 29.4 15.0001 29.4C22.9531 29.4 29.4001 22.953 29.4001 15C29.4001 7.04698 22.9531 0.599976 15.0001 0.599976ZM11.4751 20.9685H8.5591V11.5845H11.4751V20.9685ZM9.9991 10.4325C9.0781 10.4325 8.4826 9.77997 8.4826 8.97297C8.4826 8.14947 9.0961 7.51648 10.0366 7.51648C10.9771 7.51648 11.5531 8.14947 11.5711 8.97297C11.5711 9.77997 10.9771 10.4325 9.9991 10.4325ZM22.1251 20.9685H19.2091V15.768C19.2091 14.5575 18.7861 13.7355 17.7316 13.7355C16.9261 13.7355 16.4476 14.292 16.2361 14.8275C16.1581 15.018 16.1386 15.288 16.1386 15.5565V20.967H13.2211V14.577C13.2211 13.4055 13.1836 12.426 13.1446 11.583H15.6781L15.8116 12.8865H15.8701C16.2541 12.2745 17.1946 11.3715 18.7681 11.3715C20.6866 11.3715 22.1251 12.657 22.1251 15.42V20.9685Z" fill="#A7A7A7"/>

</symbol>
<symbol id="logo" viewBox="0 0 32 32"><title>logo</title>
<path fill="#ffc5d8" d="M18.224 15.312c0.224 1.232-0.24 2.544-1.424 3.088-3.264 1.52-5.024-4.208-1.536-4.848 1.12 0.016 2.288 0.208 2.768 1.184 0.016 0.032 0.032 0.080 0.048 0.112 0.080 0.144 0.128 0.304 0.144 0.464zM26.72 5.6c0.208 0.688 0.288 1.776-0.048 2.432-0.272 0.544-0.784 1.008-1.216 1.424-2 1.952-4.544 3.184-6.896 4.624-0.432-0.624-1.12-0.992-1.904-1.168 0.080-1.296 0.16-2.608 0.24-3.904 0.096-1.312 0.064-2.72 0.4-4 0.288-1.088 1.008-2.176 2.016-2.736 1.248-0.704 2.768-0.064 2.976 1.408-0.032 0.016-0.048 0.032-0.064 0.064-0.72 0.848-1.28 1.776-1.792 2.768-0.48 0.928-0.992 1.84-0.96 2.912 0.016 0.512 0.8 0.512 0.784 0-0.016-1.008 0.528-1.888 0.976-2.752 0.416-0.8 0.88-1.568 1.456-2.272 0.032 0 0.064-0.016 0.096-0.032 1.424-0.528 3.424-0.528 3.936 1.232z"/>
<path fill="#ffc5d8" d="M16.272 6.848c-0.016 0.096-0.016 0.192-0.016 0.288-0.144 1.888-0.272 3.776-0.384 5.664-0.192-0.016-0.384-0.032-0.592-0.032-0.048 0-0.096 0.016-0.128 0.016h-0.096c-0.88 0.16-1.568 0.688-2.016 1.376-0.976-0.352-1.904-0.8-2.768-1.36-0.784-0.496-1.504-1.136-2.336-1.536-0.56-0.272-1.232-0.48-1.936-0.608-0.464-0.96-0.752-2-0.768-3.072-0.016-0.496-0.048-1.168 0.16-1.632 0.272-0.608 0.944-0.592 1.504-0.576 2.448 0.032 3.408 2.88 4.128 4.8 0.176 0.464 0.944 0.272 0.768-0.208-0.496-1.328-0.992-2.864-1.968-3.904-0.208-0.224-0.416-0.432-0.64-0.608 0.016-0.048 0.032-0.112 0.032-0.16-0.080-1.088 0.256-1.792 1.040-2.528 0.752-0.704 2.064-0.688 3.008-0.384 1.84 0.592 2.4 2.784 2.976 4.384 0.016 0.032 0.016 0.064 0.032 0.080zM12.688 16.976c0.064 0.176 0.128 0.352 0.208 0.528-1.632 0.816-3.104 1.888-4.528 3.008-0.704 0.544-1.408 1.088-2.016 1.712-0.048-0.016-0.096-0.032-0.16-0.032-1.024 0-2.192 0.080-3.072-0.512-0.88-0.576-1.392-1.76-1.232-2.8 0.208-1.28 1.616-1.296 2.64-1.28 1.056 0.016 2.112 0.048 3.152 0.064 0.512 0.016 0.512-0.784 0-0.784-1.472-0.032-3.072-0.24-4.528 0-0.064 0.016-0.144 0.032-0.208 0.048-0.048-0.064-0.128-0.128-0.24-0.144-1.616-0.272-1.92-2.72-1.328-3.936 0.72-1.472 2.4-1.504 3.84-1.392 1.6 0.112 2.688 0.72 3.952 1.616 1.088 0.768 2.288 1.376 3.52 1.84-0.192 0.624-0.224 1.36 0 2.064zM15.536 19.44c-0.048 2.016-0.080 4.048-0.128 6.064-0.016 0.576-0.016 1.184 0.032 1.776-0.032 0.016-0.064 0.048-0.096 0.080-0.768 0.928-3.536 3.216-4.016 0.96-0.336-1.552 0.528-2.976 1.568-4.032 0.352-0.368-0.192-0.912-0.56-0.56-0.832 0.832-1.568 1.968-1.808 3.152-0.032 0.016-0.048 0.032-0.080 0.048-0.96 0.72-2.608 0.736-3.712 0.32-1.824-0.688-1.088-3.008-0.176-4.144 0.88-1.104 2.176-1.952 3.296-2.784 1.088-0.816 2.224-1.568 3.44-2.176 0.544 0.752 1.328 1.232 2.24 1.296z"/>
<path fill="#e53861" d="M31.776 13.328c0.144 1.152-0.832 2.016-1.84 2.48 0.512 0.272 1.008 0.624 1.264 1.104 0.32 0.64 0.288 1.664 0.224 2.368-0.16 1.52-1.52 2.352-2.96 2.576-0.944 0.144-1.968 0.080-2.96-0.128 1.584 1.648 2.784 3.936 0.544 5.632-0.672 0.512-1.648 0.448-2.448 0.080-0.112 1.28-1.136 2.816-2.24 3.36-0.704 0.352-1.712 0.288-2.48 0.224-0.736-0.064-1.488-0.272-2.080-0.736-0.672-0.528-1.024-1.248-1.2-2.032-1.168 1.184-3.728 2.944-4.736 1.072-0.256-0.48-0.384-0.976-0.4-1.472-1.168 0.608-2.848 0.56-4.032 0.096-1.408-0.56-1.84-2.096-1.456-3.472 0.16-0.576 0.416-1.088 0.752-1.536-1.152-0.016-2.336-0.064-3.264-0.816-0.944-0.768-1.456-2-1.36-3.2 0.048-0.704 0.384-1.232 0.88-1.6-1.184-0.528-1.712-2.080-1.68-3.296 0.032-1.456 0.912-2.816 2.336-3.248 0.736-0.224 1.6-0.288 2.464-0.224-0.784-1.952-1.504-5.648 1.12-5.936 0.848-0.096 1.552 0.032 2.192 0.336 0-1.104 0.368-1.84 1.2-2.656 0.896-0.912 2-0.96 3.216-0.8 2.048 0.272 2.976 1.952 3.664 3.696 0.176-0.848 0.464-1.648 1.056-2.368 0.8-1.008 1.984-1.824 3.328-1.6 1.168 0.208 1.952 1.12 2.176 2.24 1.376-0.4 2.944-0.304 3.92 0.896 0.8 0.976 1.008 2.96 0.4 4.080-0.448 0.816-1.168 1.536-1.936 2.176 2.448-0.128 5.952-0.32 6.336 2.704zM28.112 15.408c1.088-0.064 3.184-0.736 2.848-2.192-0.32-1.328-1.584-1.776-2.816-1.824-1.216-0.048-2.432 0.032-3.648 0.048-0.048 0-0.096-0.016-0.144-0.016l-0.624 0.432c-1.552 1.072-3.232 1.968-4.832 2.96 0.064 0.192 0.096 0.384 0.128 0.608 0.064 0.544 0.016 1.088-0.128 1.584 1.088 0.688 2.176 1.36 3.184 2.16 1.2 0.928 2.336 1.584 3.856 1.84 0.72 0.128 1.488 0.192 2.208 0.112 0.784-0.080 2-0.528 2.352-1.296 0.256-0.544 0.144-1.392 0.096-1.968-0.096-0.896-0.944-1.296-1.68-1.648-0.032-0.016-0.064-0.032-0.080-0.048-0.64 0.096-1.296 0.080-1.92 0.096-0.896 0.032-1.808 0.048-2.704 0.080-0.512 0.016-0.512-0.768 0-0.784 1.296-0.064 2.608-0.064 3.904-0.144zM26.672 8.032c0.32-0.656 0.256-1.744 0.048-2.432-0.512-1.76-2.512-1.76-3.92-1.216-0.032 0.016-0.064 0.016-0.096 0.032-0.576 0.688-1.040 1.472-1.456 2.272-0.448 0.864-1.008 1.744-0.976 2.752 0.016 0.512-0.784 0.512-0.784 0-0.016-1.072 0.48-1.984 0.96-2.912 0.512-0.976 1.072-1.92 1.792-2.768 0.016-0.032 0.048-0.048 0.064-0.064-0.192-1.456-1.712-2.112-2.976-1.408-0.992 0.56-1.712 1.648-2.016 2.736-0.336 1.264-0.304 2.688-0.4 4-0.096 1.296-0.176 2.608-0.24 3.904 0.784 0.176 1.472 0.544 1.904 1.168 2.352-1.44 4.896-2.688 6.896-4.624 0.416-0.416 0.928-0.896 1.2-1.44zM25.744 26.576c1.952-1.776-0.4-4.048-1.84-5.232-0.048-0.048-0.096-0.096-0.112-0.144-0.208-0.096-0.416-0.192-0.608-0.288-0.816-0.448-1.52-1.12-2.272-1.664-0.752-0.528-1.52-1.024-2.304-1.504-0.384 0.704-1.008 1.248-1.84 1.536-0.144 0.048-0.304 0.096-0.448 0.128l-0.096 4.432c-0.032 1.44-0.272 3.088 0.176 4.496 0.528 1.712 2.112 2.048 3.728 1.952 0.816-0.048 1.248-0.384 1.744-0.976 0.512-0.624 0.976-1.344 0.928-2.192 0-0.048 0-0.080 0.016-0.128-0.032-0.032-0.064-0.048-0.080-0.080-0.944-0.896-1.808-2.016-2.080-3.312-0.112-0.496 0.656-0.704 0.768-0.208 0.208 1.008 0.784 1.808 1.472 2.544 0.672 0.752 1.92 1.472 2.848 0.64zM16.816 18.416c1.184-0.544 1.648-1.856 1.424-3.088-0.032-0.16-0.080-0.32-0.128-0.448-0.016-0.032-0.032-0.080-0.048-0.112-0.48-0.976-1.648-1.168-2.768-1.184-3.504 0.624-1.76 6.352 1.52 4.832zM16.256 7.136c0.016-0.096 0.016-0.192 0.016-0.288-0.016-0.016-0.032-0.048-0.032-0.080-0.592-1.6-1.136-3.808-2.976-4.384-0.944-0.304-2.256-0.32-3.008 0.384-0.784 0.736-1.12 1.44-1.040 2.528 0 0.064 0 0.128-0.032 0.16 0.224 0.176 0.432 0.384 0.64 0.608 0.976 1.056 1.472 2.592 1.968 3.904 0.176 0.48-0.576 0.688-0.768 0.208-0.72-1.92-1.68-4.752-4.128-4.8-0.56 0-1.232-0.016-1.504 0.576-0.208 0.464-0.176 1.136-0.16 1.632 0.032 1.072 0.304 2.112 0.768 3.072 0.704 0.128 1.36 0.32 1.936 0.608 0.848 0.4 1.552 1.040 2.336 1.536 0.88 0.544 1.808 0.992 2.768 1.36 0.432-0.688 1.136-1.216 2.016-1.376h0.096c0.048-0.016 0.080-0.016 0.128-0.016 0.192 0 0.4 0.016 0.592 0.032 0.112-1.888 0.24-3.776 0.384-5.664zM15.408 25.504c0.048-2.016 0.080-4.048 0.128-6.064-0.896-0.064-1.696-0.544-2.24-1.28-1.216 0.608-2.352 1.36-3.44 2.176-1.12 0.832-2.416 1.68-3.296 2.784-0.912 1.136-1.648 3.44 0.176 4.144 1.104 0.416 2.752 0.4 3.712-0.32 0.032-0.016 0.048-0.032 0.080-0.048 0.24-1.184 0.992-2.32 1.808-3.152 0.368-0.368 0.912 0.192 0.56 0.56-1.056 1.056-1.904 2.48-1.568 4.032 0.48 2.256 3.248-0.048 4.016-0.96 0.032-0.032 0.064-0.064 0.096-0.080-0.064-0.608-0.048-1.216-0.032-1.792zM12.88 17.488c-0.080-0.16-0.144-0.336-0.208-0.528-0.224-0.704-0.192-1.424 0.032-2.096-1.248-0.48-2.432-1.088-3.52-1.84-1.264-0.896-2.368-1.504-3.952-1.616-1.44-0.096-3.12-0.080-3.84 1.392-0.608 1.216-0.288 3.664 1.328 3.936 0.112 0.016 0.192 0.080 0.24 0.144 0.064-0.016 0.144-0.032 0.208-0.048 1.456-0.24 3.056-0.032 4.528 0 0.512 0.016 0.512 0.8 0 0.784-1.056-0.016-2.112-0.048-3.152-0.064-1.024-0.016-2.448 0-2.64 1.28-0.16 1.040 0.352 2.208 1.232 2.8s2.048 0.496 3.072 0.512c0.064 0 0.112 0.016 0.16 0.032 0.608-0.624 1.328-1.168 2.016-1.712 1.392-1.088 2.864-2.16 4.496-2.976z"/>
<path fill="#ffc5d8" d="M30.96 13.216c0.336 1.456-1.76 2.128-2.848 2.192-1.296 0.080-2.592 0.064-3.904 0.112-0.512 0.016-0.512 0.8 0 0.784 0.896-0.032 1.808-0.048 2.704-0.080 0.64-0.016 1.296 0.016 1.92-0.096 0.032 0.016 0.048 0.032 0.080 0.048 0.736 0.352 1.584 0.752 1.68 1.648 0.064 0.576 0.16 1.424-0.096 1.968-0.352 0.768-1.584 1.216-2.352 1.296-0.72 0.080-1.488 0.016-2.208-0.112-1.52-0.272-2.656-0.912-3.856-1.84-1.008-0.784-2.096-1.472-3.184-2.16 0.144-0.496 0.192-1.040 0.128-1.584-0.032-0.224-0.080-0.416-0.128-0.608 1.616-0.992 3.28-1.888 4.832-2.96 0.208-0.144 0.4-0.288 0.624-0.432 0.048 0.016 0.096 0.016 0.144 0.016 1.216-0.016 2.432-0.096 3.648-0.048 1.232 0.080 2.496 0.528 2.816 1.856zM23.904 21.344c1.44 1.168 3.808 3.456 1.84 5.232-0.928 0.832-2.176 0.112-2.864-0.64-0.688-0.736-1.248-1.536-1.472-2.544-0.112-0.496-0.864-0.288-0.768 0.208 0.288 1.296 1.136 2.416 2.080 3.312 0.032 0.032 0.064 0.048 0.080 0.080-0.016 0.032-0.016 0.080-0.016 0.128 0.048 0.848-0.416 1.568-0.928 2.192-0.496 0.608-0.928 0.928-1.744 0.976-1.6 0.096-3.184-0.24-3.728-1.952-0.432-1.408-0.192-3.056-0.176-4.496 0.032-1.488 0.064-2.96 0.096-4.432 0.144-0.032 0.304-0.064 0.448-0.128 0.832-0.288 1.456-0.848 1.84-1.536 0.768 0.48 1.552 0.976 2.304 1.504 0.768 0.544 1.456 1.216 2.272 1.664 0.192 0.112 0.4 0.208 0.608 0.288 0.032 0.048 0.064 0.096 0.128 0.144z"/>

</symbol>
<symbol id="milkyway" viewBox="0 0 554.663 554.663">
<g>
	<path d="M529.638,362.252c-3.654,0-7.1,0.818-10.24,2.242l-90.02-136.756c5.78-4.578,9.553-11.572,9.553-19.513
		c0-13.826-11.199-25.03-25.013-25.03c-13.021,0-23.6,9.996-24.779,22.735L298.7,245.984c-5.465-7.695-14.404-12.746-24.557-12.746
		c-7.064,0-13.475,2.534-18.625,6.604l-76.123-64.294c1.279-3.013,1.997-6.329,1.997-9.809c0-13.808-11.204-25.012-25.013-25.012
		c-4.974,0-9.593,1.495-13.475,4.005l-89.3-75.452c2.201-4.041,3.55-8.6,3.55-13.522c0-15.799-12.792-28.591-28.574-28.591
		C12.792,27.167,0,39.959,0,55.758c0,15.793,12.792,28.58,28.58,28.58c6.516,0,12.459-2.265,17.265-5.944l88.88,75.066
		c-2.067,3.638-3.351,7.783-3.351,12.267c0,13.814,11.204,25.018,25.018,25.018c5.991,0,11.42-2.201,15.724-5.716l75.703,63.943
		c-2.359,4.309-3.83,9.184-3.83,14.433c0,13.942,9.5,25.538,22.338,28.994l-9.529,105.165c-12.004,1.821-21.235,12.121-21.235,24.65
		c0,13.813,11.204,25,25.001,25c6.551,0,12.459-2.568,16.92-6.703l86.89,57.336c-0.292,1.506-0.467,3.059-0.467,4.646
		c0,13.814,11.197,25.001,24.988,25.001c13.826,0,25.024-11.187,25.024-25.001c0-2.826-0.572-5.523-1.448-8.068l104.697-85.594
		c3.678,2.16,7.905,3.457,12.471,3.457c13.814,0,25.024-11.199,25.024-25.001C554.663,373.452,543.453,362.252,529.638,362.252z
		 M284.045,430.517c0.935-2.615,1.518-5.383,1.518-8.313c0-10.953-7.076-20.178-16.868-23.564l9.563-105.491
		c14.696-2.032,26.046-14.491,26.046-29.742c0-2.236-0.28-4.396-0.747-6.493l87.449-38.704c3.842,8.834,12.646,15.028,22.911,15.028
		c1.529,0,3.001-0.192,4.448-0.455l91.619,139.185c-3.305,4.228-5.359,9.517-5.359,15.32c0,4.858,1.447,9.365,3.842,13.195
		l-102.49,83.795c-4.484-4.204-10.451-6.808-17.084-6.808c-7.87,0-14.818,3.725-19.407,9.424L284.045,430.517z"/>
</g>

</symbol>
<symbol id="moon-icon" viewBox="0 0 24 24">
<g id="SVGRepo_bgCarrier" stroke-width="0"/>
<g id="SVGRepo_tracerCarrier" stroke-linecap="round" stroke-linejoin="round"/>
<g id="SVGRepo_iconCarrier"> <path d="M19.9001 2.30719C19.7392 1.8976 19.1616 1.8976 19.0007 2.30719L18.5703 3.40247C18.5212 3.52752 18.4226 3.62651 18.298 3.67583L17.2067 4.1078C16.7986 4.26934 16.7986 4.849 17.2067 5.01054L18.298 5.44252C18.4226 5.49184 18.5212 5.59082 18.5703 5.71587L19.0007 6.81115C19.1616 7.22074 19.7392 7.22074 19.9001 6.81116L20.3305 5.71587C20.3796 5.59082 20.4782 5.49184 20.6028 5.44252L21.6941 5.01054C22.1022 4.849 22.1022 4.26934 21.6941 4.1078L20.6028 3.67583C20.4782 3.62651 20.3796 3.52752 20.3305 3.40247L19.9001 2.30719Z" stroke="#ffffff"/> <path d="M16.0328 8.12967C15.8718 7.72009 15.2943 7.72009 15.1333 8.12967L14.9764 8.52902C14.9273 8.65407 14.8287 8.75305 14.7041 8.80237L14.3062 8.95987C13.8981 9.12141 13.8981 9.70107 14.3062 9.86261L14.7041 10.0201C14.8287 10.0694 14.9273 10.1684 14.9764 10.2935L15.1333 10.6928C15.2943 11.1024 15.8718 11.1024 16.0328 10.6928L16.1897 10.2935C16.2388 10.1684 16.3374 10.0694 16.462 10.0201L16.8599 9.86261C17.268 9.70107 17.268 9.12141 16.8599 8.95987L16.462 8.80237C16.3374 8.75305 16.2388 8.65407 16.1897 8.52902L16.0328 8.12967Z" stroke="#ffffff"/> <path d="M21.0672 11.8568L20.4253 11.469L21.0672 11.8568ZM12.1432 2.93276L11.7553 2.29085V2.29085L12.1432 2.93276ZM21.25 12C21.25 17.1086 17.1086 21.25 12 21.25V22.75C17.9371 22.75 22.75 17.9371 22.75 12H21.25ZM12 21.25C6.89137 21.25 2.75 17.1086 2.75 12H1.25C1.25 17.9371 6.06294 22.75 12 22.75V21.25ZM2.75 12C2.75 6.89137 6.89137 2.75 12 2.75V1.25C6.06294 1.25 1.25 6.06294 1.25 12H2.75ZM15.5 14.25C12.3244 14.25 9.75 11.6756 9.75 8.5H8.25C8.25 12.5041 11.4959 15.75 15.5 15.75V14.25ZM20.4253 11.469C19.4172 13.1373 17.5882 14.25 15.5 14.25V15.75C18.1349 15.75 20.4407 14.3439 21.7092 12.2447L20.4253 11.469ZM9.75 8.5C9.75 6.41182 10.8627 4.5828 12.531 3.57467L11.7553 2.29085C9.65609 3.5593 8.25 5.86509 8.25 8.5H9.75ZM12 2.75C11.9115 2.75 11.8077 2.71008 11.7324 2.63168C11.6686 2.56527 11.6538 2.50244 11.6503 2.47703C11.6461 2.44587 11.6482 2.35557 11.7553 2.29085L12.531 3.57467C13.0342 3.27065 13.196 2.71398 13.1368 2.27627C13.0754 1.82126 12.7166 1.25 12 1.25V2.75ZM21.7092 12.2447C21.6444 12.3518 21.5541 12.3539 21.523 12.3497C21.4976 12.3462 21.4347 12.3314 21.3683 12.2676C21.2899 12.1923 21.25 12.0885 21.25 12H22.75C22.75 11.2834 22.1787 10.9246 21.7237 10.8632C21.286 10.804 20.7293 10.9658 20.4253 11.469L21.7092 12.2447Z" fill="#ffffff"/> </g>

</symbol>
<symbol id="person" viewBox="0 -960 960 960"><path d="M840-120v-640H120v320H40v-320q0-33 23.5-56.5T120-840h720q33 0 56.5 23.5T920-760v560q0 33-23.5 56.5T840-120ZM360-400q-66 0-113-47t-47-113q0-66 47-113t113-47q66 0 113 47t47 113q0 66-47 113t-113 47Zm0-80q33 0 56.5-23.5T440-560q0-33-23.5-56.5T360-640q-33 0-56.5 23.5T280-560q0 33 23.5 56.5T360-480ZM40-80v-112q0-34 17.5-62.5T104-298q62-31 126-46.5T360-360q66 0 130 15.5T616-298q29 15 46.5 43.5T680-192v112H40Zm80-80h480v-32q0-11-5.5-20T580-226q-54-27-109-40.5T360-280q-56 0-111 13.5T140-226q-9 5-14.5 14t-5.5 20v32Zm240-400Zm0 400Z"/>
</symbol>
<symbol id="react-icon" viewBox="0 0 32 32"><title>react-icon</title>
<path fill="#00d8ff" d="M26.31 10.96c-0.341-0.117-0.684-0.226-1.030-0.326 0.058-0.238 0.112-0.474 0.159-0.705 0.78-3.799 0.27-6.859-1.471-7.867-1.669-0.966-4.399 0.041-7.156 2.449-0.272 0.238-0.537 0.482-0.797 0.734-0.174-0.167-0.35-0.331-0.53-0.491-2.889-2.575-5.786-3.66-7.525-2.65-1.668 0.969-2.162 3.846-1.46 7.446 0.070 0.357 0.149 0.711 0.236 1.064-0.41 0.117-0.806 0.241-1.184 0.374-3.388 1.185-5.551 3.043-5.551 4.97 0 1.99 2.323 3.986 5.851 5.197 0.286 0.098 0.574 0.188 0.865 0.272-0.094 0.38-0.178 0.762-0.251 1.146-0.669 3.538-0.147 6.346 1.517 7.309 1.718 0.994 4.601-0.028 7.409-2.491 0.228-0.2 0.45-0.406 0.668-0.618 0.281 0.272 0.569 0.536 0.865 0.792 2.72 2.349 5.405 3.297 7.067 2.332 1.716-0.997 2.274-4.015 1.55-7.686-0.057-0.288-0.121-0.574-0.192-0.858 0.202-0.060 0.401-0.122 0.595-0.187 3.668-1.22 6.055-3.192 6.055-5.209 0-1.934-2.233-3.804-5.689-4.998zM25.514 19.865c-0.175 0.058-0.354 0.114-0.537 0.169-0.405-1.287-0.951-2.655-1.62-4.068 0.638-1.38 1.164-2.731 1.557-4.009 0.327 0.095 0.645 0.195 0.951 0.301 2.961 1.023 4.767 2.536 4.767 3.701 0 1.241-1.951 2.853-5.118 3.906zM24.2 22.478c0.32 1.623 0.366 3.091 0.154 4.238-0.191 1.031-0.574 1.718-1.048 1.994-1.008 0.586-3.165-0.176-5.49-2.184-0.275-0.238-0.543-0.483-0.805-0.736 0.902-0.99 1.803-2.14 2.682-3.418 1.547-0.138 3.008-0.363 4.334-0.671 0.064 0.258 0.122 0.517 0.173 0.777zM10.91 28.609c-0.985 0.349-1.77 0.359-2.244 0.085-1.009-0.584-1.429-2.84-0.857-5.865 0.068-0.358 0.146-0.713 0.234-1.066 1.311 0.291 2.761 0.5 4.312 0.626 0.885 1.25 1.812 2.4 2.747 3.406-0.199 0.193-0.402 0.381-0.61 0.564-1.242 1.089-2.486 1.862-3.582 2.25zM6.295 19.857c-1.56-0.535-2.849-1.231-3.732-1.99-0.794-0.682-1.194-1.359-1.194-1.909 0-1.169 1.737-2.661 4.634-3.675 0.352-0.123 0.72-0.239 1.101-0.348 0.4 1.307 0.926 2.674 1.559 4.056-0.642 1.402-1.175 2.791-1.579 4.114-0.265-0.076-0.529-0.159-0.79-0.248zM7.842 9.287c-0.601-3.084-0.202-5.411 0.803-5.995 1.070-0.622 3.437 0.265 5.932 2.488 0.163 0.145 0.323 0.294 0.48 0.445-0.93 1.002-1.848 2.143-2.726 3.386-1.505 0.14-2.945 0.365-4.27 0.666-0.082-0.328-0.155-0.658-0.22-0.989v-0zM21.644 12.708c-0.313-0.542-0.637-1.078-0.973-1.606 1.021 0.13 1.999 0.302 2.918 0.512-0.276 0.887-0.619 1.815-1.024 2.765-0.296-0.563-0.603-1.12-0.921-1.671zM16.015 7.205c0.63 0.686 1.262 1.451 1.883 2.281-1.26-0.060-2.522-0.060-3.782-0.001 0.622-0.823 1.258-1.587 1.899-2.281zM10.351 12.717c-0.314 0.546-0.615 1.1-0.903 1.661-0.398-0.947-0.739-1.879-1.017-2.779 0.913-0.205 1.886-0.373 2.901-0.5-0.34 0.531-0.667 1.071-0.981 1.618v0zM11.361 20.915c-1.048-0.117-2.036-0.276-2.949-0.476 0.282-0.916 0.631-1.867 1.037-2.835 0.289 0.561 0.592 1.115 0.907 1.662 0.324 0.562 0.66 1.112 1.005 1.649zM16.053 24.808c-0.648-0.701-1.294-1.478-1.925-2.312 0.613 0.024 1.237 0.036 1.872 0.036 0.652 0 1.297-0.015 1.931-0.043-0.623 0.85-1.252 1.627-1.878 2.319zM22.577 17.555c0.428 0.978 0.788 1.925 1.074 2.825-0.928 0.212-1.929 0.384-2.985 0.511 0.338-0.538 0.666-1.083 0.982-1.634 0.322-0.56 0.631-1.128 0.928-1.702zM20.465 18.571c-0.485 0.845-0.997 1.674-1.535 2.486-0.975 0.069-1.953 0.104-2.93 0.103-0.996 0-1.964-0.031-2.897-0.092-0.552-0.81-1.074-1.64-1.564-2.49h0c-0.488-0.845-0.943-1.708-1.365-2.588 0.421-0.88 0.875-1.743 1.361-2.589l-0 0c0.486-0.846 1.003-1.673 1.552-2.479 0.952-0.072 1.927-0.11 2.914-0.11h0c0.991 0 1.968 0.038 2.919 0.111 0.543 0.805 1.057 1.629 1.542 2.471 0.488 0.844 0.948 1.703 1.379 2.577-0.427 0.883-0.886 1.75-1.375 2.6zM23.285 3.251c1.071 0.62 1.488 3.121 0.815 6.401-0.043 0.209-0.091 0.422-0.144 0.639-1.328-0.308-2.769-0.536-4.278-0.678-0.879-1.257-1.79-2.399-2.705-3.388 0.24-0.232 0.485-0.458 0.736-0.677 2.362-2.063 4.57-2.878 5.576-2.296zM16 13.091c1.578 0 2.857 1.284 2.857 2.868s-1.279 2.868-2.857 2.868c-1.578 0-2.857-1.284-2.857-2.868s1.279-2.868 2.857-2.868z"/>

</symbol>
<symbol id="rhombus" viewBox="0 0 24 24">
  <path d="M12 3L14.0357 8.16153C14.2236 8.63799 14.3175 8.87622 14.4614 9.0771C14.5889 9.25516 14.7448 9.41106 14.9229 9.53859C15.1238 9.68245 15.362 9.77641 15.8385 9.96432L21 12L15.8385 14.0357C15.362 14.2236 15.1238 14.3175 14.9229 14.4614C14.7448 14.5889 14.5889 14.7448 14.4614 14.9229C14.3175 15.1238 14.2236 15.362 14.0357 15.8385L12 21L9.96432 15.8385C9.77641 15.362 9.68245 15.1238 9.53859 14.9229C9.41106 14.7448 9.25516 14.5889 9.0771 14.4614C8.87622 14.3175 8.63799 14.2236 8.16153 14.0357L3 12L8.16153 9.96432C8.63799 9.77641 8.87622 9.68245 9.0771 9.53859C9.25516 9.41106 9.41106 9.25516 9.53859 9.0771C9.68245 8.87622 9.77641 8.63799 9.96432 8.16153L12 3Z"/>

</symbol>
<symbol id="sass-logo" viewBox="0 0 512 384"><path fill="#CF649A" d="M440.6 220.6c-17.9.1-33.4 4.4-46.4 10.8-4.8-9.5-9.6-17.8-10.4-24-.9-7.2-2-11.6-.9-20.2s6.1-20.8 6.1-21.8c-.1-.9-1.1-5.3-11.4-5.4-10.3-.1-19.2 2-20.2 4.7s-3 8.9-4.3 15.3c-1.8 9.4-20.6 42.7-31.3 60.2-3.5-6.8-6.5-12.8-7.1-17.6-.9-7.2-2-11.6-.9-20.2s6.1-20.8 6.1-21.8c-.1-.9-1.1-5.3-11.4-5.4-10.3-.1-19.2 2-20.2 4.7s-2.1 9.1-4.3 15.3c-2.1 6.2-27.1 61.8-33.6 76.3-3.3 7.4-6.2 13.3-8.3 17.3s-.1.3-.3.7c-1.8 3.4-2.8 5.3-2.8 5.3v.1c-1.4 2.5-2.9 4.9-3.6 4.9-.5 0-1.5-6.7.2-15.9 3.7-19.3 12.7-49.4 12.6-50.5 0-.5 1.7-5.8-5.8-8.5-7.3-2.7-9.9 1.8-10.5 1.8-.6 0-1.1 1.6-1.1 1.6s8.1-33.9-15.5-33.9c-14.8 0-35.2 16.1-45.3 30.8-6.4 3.5-20 10.9-34.4 18.8-5.5 3-11.2 6.2-16.6 9.1l-1.1-1.2c-28.6-30.5-81.5-52.1-79.3-93.1.8-14.9 6-54.2 101.6-101.8 78.3-39 141-28.3 151.9-4.5 15.5 34-33.5 97.2-114.9 106.3-31 3.5-47.3-8.5-51.4-13-4.3-4.7-4.9-4.9-6.5-4-2.6 1.4-1 5.6 0 8.1 2.4 6.3 12.4 17.5 29.4 23.1 14.9 4.9 51.3 7.6 95.3-9.4 49.3-19.1 87.8-72.1 76.5-116.4-11.5-45.1-86.3-59.9-157-34.8-42.1 15-87.7 38.4-120.5 69.1-39 36.4-45.2 68.2-42.6 81.4 9.1 47.1 74 77.8 100 100.5-1.3.7-2.5 1.4-3.6 2-13 6.4-62.5 32.3-74.9 59.7-14 31 2.2 53.3 13 56.3 33.4 9.3 67.6-7.4 86.1-34.9 18.4-27.5 16.2-63.2 7.7-79.5l-.3-.6 10.2-6c6.6-3.9 13.1-7.5 18.8-10.6-3.2 8.7-5.5 19-6.7 34-1.4 17.6 5.8 40.4 15.3 49.4 4.2 3.9 9.2 4 12.3 4 11 0 16-9.1 21.5-20 6.8-13.3 12.8-28.7 12.8-28.7s-7.5 41.7 13 41.7c7.5 0 15-9.7 18.4-14.7v.1s.2-.3.6-1c.8-1.2 1.2-1.9 1.2-1.9v-.2c3-5.2 9.7-17.1 19.7-36.8 12.9-25.4 25.3-57.2 25.3-57.2s1.2 7.8 4.9 20.6c2.2 7.6 7 15.9 10.7 24-3 4.2-4.8 6.6-4.8 6.6l.1.1c-2.4 3.2-5.1 6.6-7.9 10-10.2 12.2-22.4 26.1-24 30.1-1.9 4.7-1.5 8.2 2.2 11 2.7 2 7.5 2.4 12.6 2 9.2-.6 15.6-2.9 18.8-4.3 5-1.8 10.7-4.5 16.2-8.5 10-7.4 16.1-17.9 15.5-31.9-.3-7.7-2.8-15.3-5.9-22.5.9-1.3 1.8-2.6 2.7-4 15.8-23.1 28-48.5 28-48.5s1.2 7.8 4.9 20.6c1.9 6.5 5.7 13.6 9.1 20.6-14.8 12.1-24.1 26.1-27.3 35.3-5.9 17-1.3 24.7 7.4 26.5 3.9.8 9.5-1 13.7-2.8 5.2-1.7 11.5-4.6 17.3-8.9 10-7.4 19.6-17.7 19.1-31.6-.3-6.4-2-12.7-4.3-18.7 12.6-5.2 28.9-8.2 49.6-5.7 44.5 5.2 53.3 33 51.6 44.6-1.7 11.6-11 18-14.1 20-3.1 1.9-4.1 2.6-3.8 4 .4 2.1 1.8 2 4.5 1.6 3.7-.6 23.4-9.5 24.2-30.9 1.2-27.5-24.9-57.5-71.2-57.2zm-343.2 115.7c-14.7 16.1-35.4 22.2-44.2 17-9.5-5.5-5.8-29.2 12.3-46.3 11-10.4 25.3-20 34.7-25.9 2.1-1.3 5.3-3.2 9.1-5.5.6-.4 1-.6 1-.6.7-.4 1.5-.9 2.3-1.4 6.7 24.4.3 45.8-15.2 62.7zm107.5-73.1c-5.1 12.5-15.9 44.6-22.4 42.8-5.6-1.5-9-25.8-1.1-49.8 4-12.1 12.5-26.5 17.5-32.1 8.1-9 16.9-12 19.1-8.3 2.6 4.8-9.9 39.6-13.1 47.4zm88.7 42.4c-2.2 1.1-4.2 1.9-5.1 1.3-.7-.4.9-1.9.9-1.9s11.1-11.9 15.5-17.4c2.5-3.2 5.5-6.9 8.7-11.1v1.2c0 14.4-13.8 24-20 27.9zm68.4-15.6c-1.6-1.2-1.4-4.9 4-16.5 2.1-4.6 6.9-12.3 15.2-19.6 1 3 1.6 5.9 1.5 8.6-.1 18-12.9 24.7-20.7 27.5z"/>
</symbol>
<symbol id="stack" viewBox="0 -960 960 960"><path d="m352-522 86-87-56-57-44 44-56-56 43-44-45-45-87 87 159 158Zm328 329 87-87-45-45-44 43-56-56 43-44-57-56-86 86 158 159Zm24-567 57 57-57-57ZM290-120H120v-170l175-175L80-680l200-200 216 216 151-152q12-12 27-18t31-6q16 0 31 6t27 18l53 54q12 12 18 27t6 31q0 16-6 30.5T816-647L665-495l215 215L680-80 465-295 290-120Zm-90-80h56l392-391-57-57-391 392v56Zm420-419-29-29 57 57-28-28Z"/>
</symbol>
<symbol id="star2" viewBox="0 0 24 24">
  <path d="M11.2896 3.36637C11.5193 2.92427 11.6342 2.70323 11.7881 2.63139C11.9221 2.56883 12.077 2.56883 12.211 2.63139C12.3649 2.70323 12.4798 2.92427 12.7095 3.36637L14.2225 6.27865C14.3216 6.46934 14.3711 6.56468 14.4454 6.62803C14.511 6.68394 14.5899 6.72195 14.6745 6.73837C14.7704 6.75697 14.8758 6.73625 15.0867 6.69481L18.3069 6.06197C18.7958 5.9659 19.0402 5.91786 19.1923 5.99342C19.3248 6.05921 19.4214 6.18027 19.456 6.32406C19.4958 6.4892 19.3946 6.71681 19.1922 7.17203L17.8586 10.1707C17.7713 10.3671 17.7276 10.4653 17.7244 10.5628C17.7216 10.649 17.7411 10.7344 17.781 10.8108C17.8262 10.8973 17.9082 10.9668 18.072 11.1058L20.5746 13.229C20.9545 13.5513 21.1445 13.7124 21.1803 13.8785C21.2114 14.0231 21.177 14.174 21.0862 14.2908C20.9819 14.4249 20.7408 14.4876 20.2587 14.6132L17.0827 15.4402C16.8748 15.4944 16.7708 15.5215 16.6925 15.5798C16.6234 15.6313 16.5688 15.6998 16.534 15.7786C16.4945 15.868 16.4912 15.9754 16.4847 16.1901L16.3851 19.4705C16.37 19.9685 16.3624 20.2175 16.2549 20.349C16.1613 20.4635 16.0218 20.5307 15.8739 20.5325C15.704 20.5345 15.5047 20.3852 15.1059 20.0865L12.4791 18.1191C12.3071 17.9903 12.2211 17.9259 12.1267 17.9011C12.0434 17.8791 11.9558 17.8791 11.8724 17.9011C11.778 17.9259 11.692 17.9903 11.52 18.1191L8.8932 20.0865C8.49444 20.3852 8.29506 20.5345 8.12521 20.5325C7.97731 20.5307 7.8378 20.4635 7.74418 20.349C7.63667 20.2175 7.62911 19.9685 7.61399 19.4705L7.51439 16.1901C7.50787 15.9754 7.50461 15.868 7.46514 15.7786C7.43031 15.6998 7.37569 15.6313 7.30658 15.5798C7.22829 15.5215 7.12432 15.4944 6.91636 15.4402L3.74042 14.6132C3.2583 14.4876 3.01724 14.4249 2.91295 14.2908C2.82214 14.174 2.78768 14.0231 2.81884 13.8785C2.85463 13.7124 3.04458 13.5513 3.42448 13.229L5.92706 11.1058C6.09093 10.9668 6.17286 10.8973 6.21808 10.8108C6.258 10.7344 6.27749 10.649 6.27467 10.5628C6.27148 10.4653 6.22782 10.3671 6.1405 10.1707L4.80694 7.17203C4.6045 6.71681 4.50328 6.4892 4.54309 6.32406C4.57775 6.18027 4.6743 6.05921 4.80677 5.99342C4.95891 5.91786 5.20333 5.9659 5.69219 6.06197L8.91245 6.69481C9.1233 6.73625 9.22873 6.75697 9.32458 6.73837C9.4092 6.72195 9.48812 6.68394 9.55371 6.62803C9.62802 6.56468 9.67755 6.46934 9.77662 6.27865L11.2896 3.36637Z"/>

</symbol>
<symbol id="sun-icon" viewBox="0 0 24 24">
<g id="SVGRepo_bgCarrier" stroke-width="0"/>
<g id="SVGRepo_tracerCarrier" stroke-linecap="round" stroke-linejoin="round"/>
<g id="SVGRepo_iconCarrier"> <circle cx="12" cy="12" r="5" stroke="#ffffff" stroke-width="1.5"/> <path d="M12 2V4" stroke="#ffffff" stroke-width="1.5" stroke-linecap="round"/> <path d="M12 20V22" stroke="#ffffff" stroke-width="1.5" stroke-linecap="round"/> <path d="M4 12L2 12" stroke="#ffffff" stroke-width="1.5" stroke-linecap="round"/> <path d="M22 12L20 12" stroke="#ffffff" stroke-width="1.5" stroke-linecap="round"/> <path d="M19.7778 4.22266L17.5558 6.25424" stroke="#ffffff" stroke-width="1.5" stroke-linecap="round"/> <path d="M4.22217 4.22266L6.44418 6.25424" stroke="#ffffff" stroke-width="1.5" stroke-linecap="round"/> <path d="M6.44434 17.5557L4.22211 19.7779" stroke="#ffffff" stroke-width="1.5" stroke-linecap="round"/> <path d="M19.7778 19.7773L17.5558 17.5551" stroke="#ffffff" stroke-width="1.5" stroke-linecap="round"/> </g>

</symbol>
<symbol id="vscode-icon" viewBox="0 0 32 32"><title>vscode-icon</title>
<path fill="#0065a9" d="M29.010 5.030l-5.766-2.776c-0.326-0.157-0.692-0.209-1.048-0.148s-0.685 0.231-0.941 0.486l-18.875 17.208c-0.229 0.208-0.366 0.498-0.381 0.807s0.093 0.611 0.301 0.84c0.025 0.027 0.050 0.053 0.077 0.077l1.541 1.4c0.201 0.183 0.461 0.29 0.733 0.302s0.54-0.072 0.756-0.236l22.735-17.24c0.172-0.13 0.376-0.21 0.591-0.23s0.431 0.020 0.624 0.116 0.355 0.244 0.469 0.427c0.114 0.183 0.174 0.394 0.174 0.61v-0.067c0-0.329-0.093-0.652-0.268-0.93s-0.425-0.502-0.722-0.645z"/>
<path fill="#007acc" d="M29.010 26.97l-5.766 2.777c-0.326 0.156-0.692 0.208-1.048 0.147s-0.685-0.23-0.941-0.485l-18.875-17.209c-0.229-0.208-0.366-0.498-0.381-0.807s0.093-0.611 0.301-0.84c0.025-0.027 0.050-0.053 0.077-0.077l1.541-1.4c0.202-0.184 0.461-0.291 0.734-0.303s0.541 0.072 0.758 0.238l22.732 17.24c0.172 0.13 0.376 0.21 0.591 0.23s0.431-0.020 0.624-0.116 0.355-0.244 0.469-0.427c0.114-0.183 0.174-0.394 0.174-0.61v0.072c-0.001 0.328-0.095 0.649-0.269 0.927s-0.425 0.5-0.721 0.643z"/>
<path fill="#1f9cf0" d="M23.244 29.747c-0.326 0.156-0.692 0.208-1.048 0.147s-0.685-0.23-0.941-0.485c0.144 0.142 0.326 0.238 0.524 0.276s0.403 0.018 0.589-0.059c0.186-0.077 0.346-0.208 0.458-0.376s0.173-0.365 0.174-0.566v-25.368c0-0.203-0.060-0.401-0.172-0.57s-0.273-0.3-0.46-0.377c-0.187-0.078-0.393-0.098-0.592-0.058s-0.381 0.138-0.524 0.281c0.256-0.256 0.584-0.426 0.941-0.486s0.723-0.009 1.049 0.147l5.765 2.772c0.298 0.142 0.549 0.365 0.725 0.644s0.27 0.601 0.27 0.931v18.8c0 0.329-0.093 0.652-0.268 0.931s-0.426 0.502-0.723 0.645l-5.765 2.771z"/>

</symbol>
<symbol id="vue-icon" viewBox="0 0 256 198"><path fill="#41B883" d="M204.8 0H256L128 220.8L0 0h97.92L128 51.2L157.44 0h47.36Z"/><path fill="#41B883" d="m0 0l128 220.8L256 0h-51.2L128 132.48L50.56 0H0Z"/><path fill="#35495E" d="M50.56 0L128 133.12L204.8 0h-47.36L128 51.2L97.92 0H50.56Z"/>
</symbol>
<symbol id="widgets" viewBox="0 -960 960 960"><path d="M666-440 440-666l226-226 226 226-226 226Zm-546-80v-320h320v320H120Zm400 400v-320h320v320H520Zm-400 0v-320h320v320H120Zm80-480h160v-160H200v160Zm467 48 113-113-113-113-113 113 113 113Zm-67 352h160v-160H600v160Zm-400 0h160v-160H200v160Zm160-400Zm194-65ZM360-360Zm240 0Z"/>
</symbol></svg>