<?xml version="1.0" encoding="utf-8"?>
<svg xmlns="http://www.w3.org/2000/svg">
<symbol id="chain-icon" viewBox="0 0 21 21">
<g fill="none" fill-rule="evenodd" stroke="#000000" stroke-linecap="round" stroke-linejoin="round" transform="translate(4 4)">
<path d="m5.5 7.5c.96940983 1.36718798 3.01111566 1.12727011 4.01111565 0l1.98888435-2c1.1243486-1.22807966 1.1641276-2.81388365 0-4-1.135619-1.15706921-2.86438099-1.15706947-4 0l-2 2"/>
<path d="m7.5 6.56977319c-.96940983-1.36718798-3-1.1970433-4-.06977319l-2 1.97487373c-1.12434863 1.22807966-1.16412758 2.83900987 0 4.02512627 1.13561901 1.1570692 2.86438099 1.1570695 4 0l2-2"/>
</g>

</symbol>
<symbol id="css-icon" viewBox="0 0 32 32"><title>css-icon</title>
<path fill="#1572b6" d="M5.902 27.108l-2.246-24.991h24.688l-2.249 24.987-10.11 2.779-10.083-2.775z"/>
<path fill="#33a9dc" d="M16 27.759l8.17-2.246 1.922-21.353h-10.092v23.599z"/>
<path fill="#fff" d="M16 13.214h4.090l0.282-3.139h-4.372v-3.065h7.75l-0.074 0.822-0.759 8.447h-6.917v-3.065z"/>
<path fill="#ebebeb" d="M16.019 21.174l-0.014 0.004-3.442-0.922-0.22-2.444h-3.103l0.433 4.813 6.331 1.743 0.015-0.004v-3.189z"/>
<path fill="#fff" d="M19.827 16.15l-0.372 4.104-3.447 0.922v3.189l6.336-1.741 0.047-0.518 0.537-5.957h-3.101z"/>
<path fill="#ebebeb" d="M16.011 7.011v3.065h-7.466l-0.062-0.689-0.141-1.554-0.074-0.822h7.743zM16 13.214v3.065h-3.399l-0.062-0.689-0.14-1.554-0.074-0.822h3.675z"/>

</symbol>
<symbol id="djinni-icon" viewBox="0 0 540.000000 540.000000">

<g transform="translate(0.000000,540.000000) scale(0.100000,-0.100000)" fill="#000000" stroke="none">
<path d="M0 2700 l0 -2700 2700 0 2700 0 0 2700 0 2700 -2700 0 -2700 0 0
-2700z m3265 1429 c53 -27 102 -75 128 -124 30 -55 31 -182 2 -240 -27 -55
-96 -120 -150 -140 -56 -22 -164 -17 -219 10 -50 24 -100 74 -128 128 -32 61
-32 175 0 237 41 79 104 129 187 151 45 12 135 1 180 -22z m-735 -1184 l0
-955 -191 2 -192 3 -14 50 c-8 28 -16 56 -18 63 -3 8 -22 -1 -57 -28 -134
-106 -274 -141 -427 -105 -195 46 -340 207 -403 446 -19 71 -22 110 -22 254 0
156 3 177 28 260 86 283 285 455 527 455 105 0 161 -17 242 -71 l57 -39 0 200
c0 159 3 208 16 238 46 111 186 176 392 181 l62 1 0 -955z m840 -248 c0 -397
-4 -696 -10 -745 -13 -97 -50 -207 -95 -277 -90 -141 -248 -204 -480 -192 -97
5 -195 23 -195 36 1 3 24 17 53 31 68 33 155 121 189 192 63 129 61 105 66
896 l3 722 235 0 234 0 0 -663z m679 -188 c66 -33 121 -93 142 -156 7 -21 9
-66 7 -109 -4 -60 -10 -81 -37 -123 -95 -148 -296 -173 -424 -53 -108 101
-108 296 0 393 67 60 111 78 194 79 43 0 70 -7 118 -31z"/>
<path d="M1801 2990 c-86 -54 -114 -129 -115 -305 -1 -235 57 -335 194 -337
68 0 114 17 150 58 l30 35 -2 256 -3 257 -47 24 c-68 35 -162 40 -207 12z"/>
</g>

</symbol>
<symbol id="github-icon-dark" viewBox="0 0 32 32"><title>github-icon-dark</title>
<path fill="#a7a7a7" d="M16 0c-8.84 0-16 7.16-16 16 0 7.080 4.58 13.060 10.94 15.18 0.8 0.14 1.1-0.34 1.1-0.76 0-0.38-0.020-1.64-0.020-2.98-4.020 0.74-5.060-0.98-5.38-1.88-0.18-0.46-0.96-1.88-1.64-2.26-0.56-0.3-1.36-1.040-0.020-1.060 1.26-0.020 2.16 1.16 2.46 1.64 1.44 2.42 3.74 1.74 4.66 1.32 0.14-1.040 0.56-1.74 1.020-2.14-3.56-0.4-7.28-1.78-7.28-7.9 0-1.74 0.62-3.18 1.64-4.3-0.16-0.4-0.72-2.040 0.16-4.24 0 0 1.34-0.42 4.4 1.64 1.28-0.36 2.64-0.54 4-0.54s2.72 0.18 4 0.54c3.060-2.080 4.4-1.64 4.4-1.64 0.88 2.2 0.32 3.84 0.16 4.24 1.020 1.12 1.64 2.54 1.64 4.3 0 6.14-3.74 7.5-7.3 7.9 0.58 0.5 1.080 1.46 1.080 2.96 0 2.14-0.020 3.86-0.020 4.4 0 0.42 0.3 0.92 1.1 0.76 3.176-1.072 5.936-3.114 7.892-5.837s3.007-5.991 3.008-9.343c0-8.84-7.16-16-16-16z"/>

</symbol>
<symbol id="github-icon-light" viewBox="0 0 32 32"><title>github-icon-light</title>
<path fill="#fffefe" d="M16 0c-8.84 0-16 7.16-16 16 0 7.080 4.58 13.060 10.94 15.18 0.8 0.14 1.1-0.34 1.1-0.76 0-0.38-0.020-1.64-0.020-2.98-4.020 0.74-5.060-0.98-5.38-1.88-0.18-0.46-0.96-1.88-1.64-2.26-0.56-0.3-1.36-1.040-0.020-1.060 1.26-0.020 2.16 1.16 2.46 1.64 1.44 2.42 3.74 1.74 4.66 1.32 0.14-1.040 0.56-1.74 1.020-2.14-3.56-0.4-7.28-1.78-7.28-7.9 0-1.74 0.62-3.18 1.64-4.3-0.16-0.4-0.72-2.040 0.16-4.24 0 0 1.34-0.42 4.4 1.64 1.28-0.36 2.64-0.54 4-0.54s2.72 0.18 4 0.54c3.060-2.080 4.4-1.64 4.4-1.64 0.88 2.2 0.32 3.84 0.16 4.24 1.020 1.12 1.64 2.54 1.64 4.3 0 6.14-3.74 7.5-7.3 7.9 0.58 0.5 1.080 1.46 1.080 2.96 0 2.14-0.020 3.86-0.020 4.4 0 0.42 0.3 0.92 1.1 0.76 3.176-1.072 5.936-3.114 7.892-5.837s3.008-5.991 3.008-9.343c0-8.84-7.16-16-16-16z"/>

</symbol>
<symbol id="html-icon" viewBox="0 0 32 32"><title>html-icon</title>
<path fill="#e44f26" d="M5.902 27.201l-2.247-25.201h24.69l-2.25 25.197-10.11 2.803-10.083-2.799z"/>
<path fill="#f1662a" d="M16 27.858l8.17-2.265 1.922-21.532h-10.092v23.797z"/>
<path fill="#ebebeb" d="M16 13.407h-4.090l-0.282-3.165h4.372v-3.091h-7.75l0.074 0.83 0.759 8.517h6.917v-3.091zM16 21.434l-0.014 0.004-3.442-0.929-0.22-2.465h-3.103l0.433 4.852 6.332 1.758 0.014-0.004v-3.216z"/>
<path fill="#fff" d="M15.989 13.407v3.091h3.806l-0.358 4.009-3.448 0.93v3.216l6.337-1.757 0.046-0.522 0.726-8.137 0.076-0.83h-7.185zM15.989 7.151v3.091h7.466l0.062-0.694 0.141-1.567 0.074-0.83h-7.743z"/>

</symbol>
<symbol id="js-icon" viewBox="0 0 32 32"><title>js-icon</title>
<path fill="#f5de19" d="M2 2h28v28h-28v-28z"/>
<path fill="#000" d="M20.809 23.875c0.239 0.485 0.609 0.892 1.069 1.175s0.991 0.43 1.531 0.425c1.090 0 1.787-0.545 1.787-1.3 0-0.9-0.716-1.222-1.916-1.747l-0.658-0.282c-1.9-0.809-3.16-1.822-3.16-3.964 0-1.973 1.5-3.476 3.853-3.476 0.762-0.055 1.523 0.115 2.188 0.49s1.206 0.937 1.554 1.617l-2.057 1.315c-0.134-0.337-0.367-0.625-0.669-0.827s-0.657-0.306-1.020-0.301c-0.158-0.016-0.318 0.001-0.469 0.051s-0.29 0.13-0.409 0.236c-0.118 0.106-0.213 0.236-0.279 0.381s-0.1 0.302-0.102 0.461c0 0.789 0.489 1.109 1.618 1.6l0.658 0.282c2.236 0.959 3.5 1.936 3.5 4.133 0 2.369-1.861 3.667-4.36 3.667-0.974 0.062-1.945-0.159-2.795-0.636s-1.545-1.191-2-2.055l2.136-1.244zM11.514 24.103c0.413 0.733 0.789 1.353 1.693 1.353 0.864 0 1.41-0.338 1.41-1.653v-8.947h2.631v8.982c0 2.724-1.6 3.964-3.929 3.964-0.823 0.045-1.641-0.16-2.345-0.588s-1.263-1.060-1.602-1.812l2.142-1.299z"/>

</symbol>
<symbol id="linkedin-logo" viewBox="0 0 30 30">
<path d="M15.0001 0.599976C7.0471 0.599976 0.600098 7.04698 0.600098 15C0.600098 22.953 7.0471 29.4 15.0001 29.4C22.9531 29.4 29.4001 22.953 29.4001 15C29.4001 7.04698 22.9531 0.599976 15.0001 0.599976ZM11.4751 20.9685H8.5591V11.5845H11.4751V20.9685ZM9.9991 10.4325C9.0781 10.4325 8.4826 9.77997 8.4826 8.97297C8.4826 8.14947 9.0961 7.51648 10.0366 7.51648C10.9771 7.51648 11.5531 8.14947 11.5711 8.97297C11.5711 9.77997 10.9771 10.4325 9.9991 10.4325ZM22.1251 20.9685H19.2091V15.768C19.2091 14.5575 18.7861 13.7355 17.7316 13.7355C16.9261 13.7355 16.4476 14.292 16.2361 14.8275C16.1581 15.018 16.1386 15.288 16.1386 15.5565V20.967H13.2211V14.577C13.2211 13.4055 13.1836 12.426 13.1446 11.583H15.6781L15.8116 12.8865H15.8701C16.2541 12.2745 17.1946 11.3715 18.7681 11.3715C20.6866 11.3715 22.1251 12.657 22.1251 15.42V20.9685Z" fill="#A7A7A7"/>

</symbol>
<symbol id="logo" viewBox="0 0 32 32"><title>logo</title>
<path fill="#ffc5d8" d="M18.224 15.312c0.224 1.232-0.24 2.544-1.424 3.088-3.264 1.52-5.024-4.208-1.536-4.848 1.12 0.016 2.288 0.208 2.768 1.184 0.016 0.032 0.032 0.080 0.048 0.112 0.080 0.144 0.128 0.304 0.144 0.464zM26.72 5.6c0.208 0.688 0.288 1.776-0.048 2.432-0.272 0.544-0.784 1.008-1.216 1.424-2 1.952-4.544 3.184-6.896 4.624-0.432-0.624-1.12-0.992-1.904-1.168 0.080-1.296 0.16-2.608 0.24-3.904 0.096-1.312 0.064-2.72 0.4-4 0.288-1.088 1.008-2.176 2.016-2.736 1.248-0.704 2.768-0.064 2.976 1.408-0.032 0.016-0.048 0.032-0.064 0.064-0.72 0.848-1.28 1.776-1.792 2.768-0.48 0.928-0.992 1.84-0.96 2.912 0.016 0.512 0.8 0.512 0.784 0-0.016-1.008 0.528-1.888 0.976-2.752 0.416-0.8 0.88-1.568 1.456-2.272 0.032 0 0.064-0.016 0.096-0.032 1.424-0.528 3.424-0.528 3.936 1.232z"/>
<path fill="#ffc5d8" d="M16.272 6.848c-0.016 0.096-0.016 0.192-0.016 0.288-0.144 1.888-0.272 3.776-0.384 5.664-0.192-0.016-0.384-0.032-0.592-0.032-0.048 0-0.096 0.016-0.128 0.016h-0.096c-0.88 0.16-1.568 0.688-2.016 1.376-0.976-0.352-1.904-0.8-2.768-1.36-0.784-0.496-1.504-1.136-2.336-1.536-0.56-0.272-1.232-0.48-1.936-0.608-0.464-0.96-0.752-2-0.768-3.072-0.016-0.496-0.048-1.168 0.16-1.632 0.272-0.608 0.944-0.592 1.504-0.576 2.448 0.032 3.408 2.88 4.128 4.8 0.176 0.464 0.944 0.272 0.768-0.208-0.496-1.328-0.992-2.864-1.968-3.904-0.208-0.224-0.416-0.432-0.64-0.608 0.016-0.048 0.032-0.112 0.032-0.16-0.080-1.088 0.256-1.792 1.040-2.528 0.752-0.704 2.064-0.688 3.008-0.384 1.84 0.592 2.4 2.784 2.976 4.384 0.016 0.032 0.016 0.064 0.032 0.080zM12.688 16.976c0.064 0.176 0.128 0.352 0.208 0.528-1.632 0.816-3.104 1.888-4.528 3.008-0.704 0.544-1.408 1.088-2.016 1.712-0.048-0.016-0.096-0.032-0.16-0.032-1.024 0-2.192 0.080-3.072-0.512-0.88-0.576-1.392-1.76-1.232-2.8 0.208-1.28 1.616-1.296 2.64-1.28 1.056 0.016 2.112 0.048 3.152 0.064 0.512 0.016 0.512-0.784 0-0.784-1.472-0.032-3.072-0.24-4.528 0-0.064 0.016-0.144 0.032-0.208 0.048-0.048-0.064-0.128-0.128-0.24-0.144-1.616-0.272-1.92-2.72-1.328-3.936 0.72-1.472 2.4-1.504 3.84-1.392 1.6 0.112 2.688 0.72 3.952 1.616 1.088 0.768 2.288 1.376 3.52 1.84-0.192 0.624-0.224 1.36 0 2.064zM15.536 19.44c-0.048 2.016-0.080 4.048-0.128 6.064-0.016 0.576-0.016 1.184 0.032 1.776-0.032 0.016-0.064 0.048-0.096 0.080-0.768 0.928-3.536 3.216-4.016 0.96-0.336-1.552 0.528-2.976 1.568-4.032 0.352-0.368-0.192-0.912-0.56-0.56-0.832 0.832-1.568 1.968-1.808 3.152-0.032 0.016-0.048 0.032-0.080 0.048-0.96 0.72-2.608 0.736-3.712 0.32-1.824-0.688-1.088-3.008-0.176-4.144 0.88-1.104 2.176-1.952 3.296-2.784 1.088-0.816 2.224-1.568 3.44-2.176 0.544 0.752 1.328 1.232 2.24 1.296z"/>
<path fill="#e53861" d="M31.776 13.328c0.144 1.152-0.832 2.016-1.84 2.48 0.512 0.272 1.008 0.624 1.264 1.104 0.32 0.64 0.288 1.664 0.224 2.368-0.16 1.52-1.52 2.352-2.96 2.576-0.944 0.144-1.968 0.080-2.96-0.128 1.584 1.648 2.784 3.936 0.544 5.632-0.672 0.512-1.648 0.448-2.448 0.080-0.112 1.28-1.136 2.816-2.24 3.36-0.704 0.352-1.712 0.288-2.48 0.224-0.736-0.064-1.488-0.272-2.080-0.736-0.672-0.528-1.024-1.248-1.2-2.032-1.168 1.184-3.728 2.944-4.736 1.072-0.256-0.48-0.384-0.976-0.4-1.472-1.168 0.608-2.848 0.56-4.032 0.096-1.408-0.56-1.84-2.096-1.456-3.472 0.16-0.576 0.416-1.088 0.752-1.536-1.152-0.016-2.336-0.064-3.264-0.816-0.944-0.768-1.456-2-1.36-3.2 0.048-0.704 0.384-1.232 0.88-1.6-1.184-0.528-1.712-2.080-1.68-3.296 0.032-1.456 0.912-2.816 2.336-3.248 0.736-0.224 1.6-0.288 2.464-0.224-0.784-1.952-1.504-5.648 1.12-5.936 0.848-0.096 1.552 0.032 2.192 0.336 0-1.104 0.368-1.84 1.2-2.656 0.896-0.912 2-0.96 3.216-0.8 2.048 0.272 2.976 1.952 3.664 3.696 0.176-0.848 0.464-1.648 1.056-2.368 0.8-1.008 1.984-1.824 3.328-1.6 1.168 0.208 1.952 1.12 2.176 2.24 1.376-0.4 2.944-0.304 3.92 0.896 0.8 0.976 1.008 2.96 0.4 4.080-0.448 0.816-1.168 1.536-1.936 2.176 2.448-0.128 5.952-0.32 6.336 2.704zM28.112 15.408c1.088-0.064 3.184-0.736 2.848-2.192-0.32-1.328-1.584-1.776-2.816-1.824-1.216-0.048-2.432 0.032-3.648 0.048-0.048 0-0.096-0.016-0.144-0.016l-0.624 0.432c-1.552 1.072-3.232 1.968-4.832 2.96 0.064 0.192 0.096 0.384 0.128 0.608 0.064 0.544 0.016 1.088-0.128 1.584 1.088 0.688 2.176 1.36 3.184 2.16 1.2 0.928 2.336 1.584 3.856 1.84 0.72 0.128 1.488 0.192 2.208 0.112 0.784-0.080 2-0.528 2.352-1.296 0.256-0.544 0.144-1.392 0.096-1.968-0.096-0.896-0.944-1.296-1.68-1.648-0.032-0.016-0.064-0.032-0.080-0.048-0.64 0.096-1.296 0.080-1.92 0.096-0.896 0.032-1.808 0.048-2.704 0.080-0.512 0.016-0.512-0.768 0-0.784 1.296-0.064 2.608-0.064 3.904-0.144zM26.672 8.032c0.32-0.656 0.256-1.744 0.048-2.432-0.512-1.76-2.512-1.76-3.92-1.216-0.032 0.016-0.064 0.016-0.096 0.032-0.576 0.688-1.040 1.472-1.456 2.272-0.448 0.864-1.008 1.744-0.976 2.752 0.016 0.512-0.784 0.512-0.784 0-0.016-1.072 0.48-1.984 0.96-2.912 0.512-0.976 1.072-1.92 1.792-2.768 0.016-0.032 0.048-0.048 0.064-0.064-0.192-1.456-1.712-2.112-2.976-1.408-0.992 0.56-1.712 1.648-2.016 2.736-0.336 1.264-0.304 2.688-0.4 4-0.096 1.296-0.176 2.608-0.24 3.904 0.784 0.176 1.472 0.544 1.904 1.168 2.352-1.44 4.896-2.688 6.896-4.624 0.416-0.416 0.928-0.896 1.2-1.44zM25.744 26.576c1.952-1.776-0.4-4.048-1.84-5.232-0.048-0.048-0.096-0.096-0.112-0.144-0.208-0.096-0.416-0.192-0.608-0.288-0.816-0.448-1.52-1.12-2.272-1.664-0.752-0.528-1.52-1.024-2.304-1.504-0.384 0.704-1.008 1.248-1.84 1.536-0.144 0.048-0.304 0.096-0.448 0.128l-0.096 4.432c-0.032 1.44-0.272 3.088 0.176 4.496 0.528 1.712 2.112 2.048 3.728 1.952 0.816-0.048 1.248-0.384 1.744-0.976 0.512-0.624 0.976-1.344 0.928-2.192 0-0.048 0-0.080 0.016-0.128-0.032-0.032-0.064-0.048-0.080-0.080-0.944-0.896-1.808-2.016-2.080-3.312-0.112-0.496 0.656-0.704 0.768-0.208 0.208 1.008 0.784 1.808 1.472 2.544 0.672 0.752 1.92 1.472 2.848 0.64zM16.816 18.416c1.184-0.544 1.648-1.856 1.424-3.088-0.032-0.16-0.080-0.32-0.128-0.448-0.016-0.032-0.032-0.080-0.048-0.112-0.48-0.976-1.648-1.168-2.768-1.184-3.504 0.624-1.76 6.352 1.52 4.832zM16.256 7.136c0.016-0.096 0.016-0.192 0.016-0.288-0.016-0.016-0.032-0.048-0.032-0.080-0.592-1.6-1.136-3.808-2.976-4.384-0.944-0.304-2.256-0.32-3.008 0.384-0.784 0.736-1.12 1.44-1.040 2.528 0 0.064 0 0.128-0.032 0.16 0.224 0.176 0.432 0.384 0.64 0.608 0.976 1.056 1.472 2.592 1.968 3.904 0.176 0.48-0.576 0.688-0.768 0.208-0.72-1.92-1.68-4.752-4.128-4.8-0.56 0-1.232-0.016-1.504 0.576-0.208 0.464-0.176 1.136-0.16 1.632 0.032 1.072 0.304 2.112 0.768 3.072 0.704 0.128 1.36 0.32 1.936 0.608 0.848 0.4 1.552 1.040 2.336 1.536 0.88 0.544 1.808 0.992 2.768 1.36 0.432-0.688 1.136-1.216 2.016-1.376h0.096c0.048-0.016 0.080-0.016 0.128-0.016 0.192 0 0.4 0.016 0.592 0.032 0.112-1.888 0.24-3.776 0.384-5.664zM15.408 25.504c0.048-2.016 0.080-4.048 0.128-6.064-0.896-0.064-1.696-0.544-2.24-1.28-1.216 0.608-2.352 1.36-3.44 2.176-1.12 0.832-2.416 1.68-3.296 2.784-0.912 1.136-1.648 3.44 0.176 4.144 1.104 0.416 2.752 0.4 3.712-0.32 0.032-0.016 0.048-0.032 0.080-0.048 0.24-1.184 0.992-2.32 1.808-3.152 0.368-0.368 0.912 0.192 0.56 0.56-1.056 1.056-1.904 2.48-1.568 4.032 0.48 2.256 3.248-0.048 4.016-0.96 0.032-0.032 0.064-0.064 0.096-0.080-0.064-0.608-0.048-1.216-0.032-1.792zM12.88 17.488c-0.080-0.16-0.144-0.336-0.208-0.528-0.224-0.704-0.192-1.424 0.032-2.096-1.248-0.48-2.432-1.088-3.52-1.84-1.264-0.896-2.368-1.504-3.952-1.616-1.44-0.096-3.12-0.080-3.84 1.392-0.608 1.216-0.288 3.664 1.328 3.936 0.112 0.016 0.192 0.080 0.24 0.144 0.064-0.016 0.144-0.032 0.208-0.048 1.456-0.24 3.056-0.032 4.528 0 0.512 0.016 0.512 0.8 0 0.784-1.056-0.016-2.112-0.048-3.152-0.064-1.024-0.016-2.448 0-2.64 1.28-0.16 1.040 0.352 2.208 1.232 2.8s2.048 0.496 3.072 0.512c0.064 0 0.112 0.016 0.16 0.032 0.608-0.624 1.328-1.168 2.016-1.712 1.392-1.088 2.864-2.16 4.496-2.976z"/>
<path fill="#ffc5d8" d="M30.96 13.216c0.336 1.456-1.76 2.128-2.848 2.192-1.296 0.080-2.592 0.064-3.904 0.112-0.512 0.016-0.512 0.8 0 0.784 0.896-0.032 1.808-0.048 2.704-0.080 0.64-0.016 1.296 0.016 1.92-0.096 0.032 0.016 0.048 0.032 0.080 0.048 0.736 0.352 1.584 0.752 1.68 1.648 0.064 0.576 0.16 1.424-0.096 1.968-0.352 0.768-1.584 1.216-2.352 1.296-0.72 0.080-1.488 0.016-2.208-0.112-1.52-0.272-2.656-0.912-3.856-1.84-1.008-0.784-2.096-1.472-3.184-2.16 0.144-0.496 0.192-1.040 0.128-1.584-0.032-0.224-0.080-0.416-0.128-0.608 1.616-0.992 3.28-1.888 4.832-2.96 0.208-0.144 0.4-0.288 0.624-0.432 0.048 0.016 0.096 0.016 0.144 0.016 1.216-0.016 2.432-0.096 3.648-0.048 1.232 0.080 2.496 0.528 2.816 1.856zM23.904 21.344c1.44 1.168 3.808 3.456 1.84 5.232-0.928 0.832-2.176 0.112-2.864-0.64-0.688-0.736-1.248-1.536-1.472-2.544-0.112-0.496-0.864-0.288-0.768 0.208 0.288 1.296 1.136 2.416 2.080 3.312 0.032 0.032 0.064 0.048 0.080 0.080-0.016 0.032-0.016 0.080-0.016 0.128 0.048 0.848-0.416 1.568-0.928 2.192-0.496 0.608-0.928 0.928-1.744 0.976-1.6 0.096-3.184-0.24-3.728-1.952-0.432-1.408-0.192-3.056-0.176-4.496 0.032-1.488 0.064-2.96 0.096-4.432 0.144-0.032 0.304-0.064 0.448-0.128 0.832-0.288 1.456-0.848 1.84-1.536 0.768 0.48 1.552 0.976 2.304 1.504 0.768 0.544 1.456 1.216 2.272 1.664 0.192 0.112 0.4 0.208 0.608 0.288 0.032 0.048 0.064 0.096 0.128 0.144z"/>

</symbol>
<symbol id="react-icon" viewBox="0 0 32 32"><title>react-icon</title>
<path fill="#00d8ff" d="M26.31 10.96c-0.341-0.117-0.684-0.226-1.030-0.326 0.058-0.238 0.112-0.474 0.159-0.705 0.78-3.799 0.27-6.859-1.471-7.867-1.669-0.966-4.399 0.041-7.156 2.449-0.272 0.238-0.537 0.482-0.797 0.734-0.174-0.167-0.35-0.331-0.53-0.491-2.889-2.575-5.786-3.66-7.525-2.65-1.668 0.969-2.162 3.846-1.46 7.446 0.070 0.357 0.149 0.711 0.236 1.064-0.41 0.117-0.806 0.241-1.184 0.374-3.388 1.185-5.551 3.043-5.551 4.97 0 1.99 2.323 3.986 5.851 5.197 0.286 0.098 0.574 0.188 0.865 0.272-0.094 0.38-0.178 0.762-0.251 1.146-0.669 3.538-0.147 6.346 1.517 7.309 1.718 0.994 4.601-0.028 7.409-2.491 0.228-0.2 0.45-0.406 0.668-0.618 0.281 0.272 0.569 0.536 0.865 0.792 2.72 2.349 5.405 3.297 7.067 2.332 1.716-0.997 2.274-4.015 1.55-7.686-0.057-0.288-0.121-0.574-0.192-0.858 0.202-0.060 0.401-0.122 0.595-0.187 3.668-1.22 6.055-3.192 6.055-5.209 0-1.934-2.233-3.804-5.689-4.998zM25.514 19.865c-0.175 0.058-0.354 0.114-0.537 0.169-0.405-1.287-0.951-2.655-1.62-4.068 0.638-1.38 1.164-2.731 1.557-4.009 0.327 0.095 0.645 0.195 0.951 0.301 2.961 1.023 4.767 2.536 4.767 3.701 0 1.241-1.951 2.853-5.118 3.906zM24.2 22.478c0.32 1.623 0.366 3.091 0.154 4.238-0.191 1.031-0.574 1.718-1.048 1.994-1.008 0.586-3.165-0.176-5.49-2.184-0.275-0.238-0.543-0.483-0.805-0.736 0.902-0.99 1.803-2.14 2.682-3.418 1.547-0.138 3.008-0.363 4.334-0.671 0.064 0.258 0.122 0.517 0.173 0.777zM10.91 28.609c-0.985 0.349-1.77 0.359-2.244 0.085-1.009-0.584-1.429-2.84-0.857-5.865 0.068-0.358 0.146-0.713 0.234-1.066 1.311 0.291 2.761 0.5 4.312 0.626 0.885 1.25 1.812 2.4 2.747 3.406-0.199 0.193-0.402 0.381-0.61 0.564-1.242 1.089-2.486 1.862-3.582 2.25zM6.295 19.857c-1.56-0.535-2.849-1.231-3.732-1.99-0.794-0.682-1.194-1.359-1.194-1.909 0-1.169 1.737-2.661 4.634-3.675 0.352-0.123 0.72-0.239 1.101-0.348 0.4 1.307 0.926 2.674 1.559 4.056-0.642 1.402-1.175 2.791-1.579 4.114-0.265-0.076-0.529-0.159-0.79-0.248zM7.842 9.287c-0.601-3.084-0.202-5.411 0.803-5.995 1.070-0.622 3.437 0.265 5.932 2.488 0.163 0.145 0.323 0.294 0.48 0.445-0.93 1.002-1.848 2.143-2.726 3.386-1.505 0.14-2.945 0.365-4.27 0.666-0.082-0.328-0.155-0.658-0.22-0.989v-0zM21.644 12.708c-0.313-0.542-0.637-1.078-0.973-1.606 1.021 0.13 1.999 0.302 2.918 0.512-0.276 0.887-0.619 1.815-1.024 2.765-0.296-0.563-0.603-1.12-0.921-1.671zM16.015 7.205c0.63 0.686 1.262 1.451 1.883 2.281-1.26-0.060-2.522-0.060-3.782-0.001 0.622-0.823 1.258-1.587 1.899-2.281zM10.351 12.717c-0.314 0.546-0.615 1.1-0.903 1.661-0.398-0.947-0.739-1.879-1.017-2.779 0.913-0.205 1.886-0.373 2.901-0.5-0.34 0.531-0.667 1.071-0.981 1.618v0zM11.361 20.915c-1.048-0.117-2.036-0.276-2.949-0.476 0.282-0.916 0.631-1.867 1.037-2.835 0.289 0.561 0.592 1.115 0.907 1.662 0.324 0.562 0.66 1.112 1.005 1.649zM16.053 24.808c-0.648-0.701-1.294-1.478-1.925-2.312 0.613 0.024 1.237 0.036 1.872 0.036 0.652 0 1.297-0.015 1.931-0.043-0.623 0.85-1.252 1.627-1.878 2.319zM22.577 17.555c0.428 0.978 0.788 1.925 1.074 2.825-0.928 0.212-1.929 0.384-2.985 0.511 0.338-0.538 0.666-1.083 0.982-1.634 0.322-0.56 0.631-1.128 0.928-1.702zM20.465 18.571c-0.485 0.845-0.997 1.674-1.535 2.486-0.975 0.069-1.953 0.104-2.93 0.103-0.996 0-1.964-0.031-2.897-0.092-0.552-0.81-1.074-1.64-1.564-2.49h0c-0.488-0.845-0.943-1.708-1.365-2.588 0.421-0.88 0.875-1.743 1.361-2.589l-0 0c0.486-0.846 1.003-1.673 1.552-2.479 0.952-0.072 1.927-0.11 2.914-0.11h0c0.991 0 1.968 0.038 2.919 0.111 0.543 0.805 1.057 1.629 1.542 2.471 0.488 0.844 0.948 1.703 1.379 2.577-0.427 0.883-0.886 1.75-1.375 2.6zM23.285 3.251c1.071 0.62 1.488 3.121 0.815 6.401-0.043 0.209-0.091 0.422-0.144 0.639-1.328-0.308-2.769-0.536-4.278-0.678-0.879-1.257-1.79-2.399-2.705-3.388 0.24-0.232 0.485-0.458 0.736-0.677 2.362-2.063 4.57-2.878 5.576-2.296zM16 13.091c1.578 0 2.857 1.284 2.857 2.868s-1.279 2.868-2.857 2.868c-1.578 0-2.857-1.284-2.857-2.868s1.279-2.868 2.857-2.868z"/>

</symbol>
<symbol id="vscode-icon" viewBox="0 0 32 32"><title>vscode-icon</title>
<path fill="#0065a9" d="M29.010 5.030l-5.766-2.776c-0.326-0.157-0.692-0.209-1.048-0.148s-0.685 0.231-0.941 0.486l-18.875 17.208c-0.229 0.208-0.366 0.498-0.381 0.807s0.093 0.611 0.301 0.84c0.025 0.027 0.050 0.053 0.077 0.077l1.541 1.4c0.201 0.183 0.461 0.29 0.733 0.302s0.54-0.072 0.756-0.236l22.735-17.24c0.172-0.13 0.376-0.21 0.591-0.23s0.431 0.020 0.624 0.116 0.355 0.244 0.469 0.427c0.114 0.183 0.174 0.394 0.174 0.61v-0.067c0-0.329-0.093-0.652-0.268-0.93s-0.425-0.502-0.722-0.645z"/>
<path fill="#007acc" d="M29.010 26.97l-5.766 2.777c-0.326 0.156-0.692 0.208-1.048 0.147s-0.685-0.23-0.941-0.485l-18.875-17.209c-0.229-0.208-0.366-0.498-0.381-0.807s0.093-0.611 0.301-0.84c0.025-0.027 0.050-0.053 0.077-0.077l1.541-1.4c0.202-0.184 0.461-0.291 0.734-0.303s0.541 0.072 0.758 0.238l22.732 17.24c0.172 0.13 0.376 0.21 0.591 0.23s0.431-0.020 0.624-0.116 0.355-0.244 0.469-0.427c0.114-0.183 0.174-0.394 0.174-0.61v0.072c-0.001 0.328-0.095 0.649-0.269 0.927s-0.425 0.5-0.721 0.643z"/>
<path fill="#1f9cf0" d="M23.244 29.747c-0.326 0.156-0.692 0.208-1.048 0.147s-0.685-0.23-0.941-0.485c0.144 0.142 0.326 0.238 0.524 0.276s0.403 0.018 0.589-0.059c0.186-0.077 0.346-0.208 0.458-0.376s0.173-0.365 0.174-0.566v-25.368c0-0.203-0.060-0.401-0.172-0.57s-0.273-0.3-0.46-0.377c-0.187-0.078-0.393-0.098-0.592-0.058s-0.381 0.138-0.524 0.281c0.256-0.256 0.584-0.426 0.941-0.486s0.723-0.009 1.049 0.147l5.765 2.772c0.298 0.142 0.549 0.365 0.725 0.644s0.27 0.601 0.27 0.931v18.8c0 0.329-0.093 0.652-0.268 0.931s-0.426 0.502-0.723 0.645l-5.765 2.771z"/>

</symbol></svg>